<svg id="DanceLogo" xmlns="http://www.w3.org/2000/svg" width="20.828" height="38.583" viewBox="0 0 20.828 38.583">
  <path id="path3411" d="M17.055,46.611a1.5,1.5,0,0,0-.275-.009,1.174,1.174,0,0,1-.527-.066.324.324,0,0,1-.15-.35c.021-.082.084-.114.217-.109s.163-.019.2-.112a.332.332,0,0,1,.216-.193c.079-.024.126-.064.126-.106a6.913,6.913,0,0,0-.177-.761,1.694,1.694,0,0,1-.09-.682v-.308l-.091-.479A13.378,13.378,0,0,0,16.18,41.9c-.012-.023-.025-.023-.094,0-.14.051-.158.034-.316-.3a4.865,4.865,0,0,0-.379-.7c-.07-.11-.155-.248-.188-.306-.089-.155-.593-1.13-.84-1.623-.395-.789-.473-.952-.6-1.251-.212-.486-.3-.641-.388-.689a5.677,5.677,0,0,0-.755-.188c-.124-.027-.238-.055-.253-.061a1.654,1.654,0,0,1-.294-.2,2.251,2.251,0,0,0-.463-.286,3.4,3.4,0,0,1-.724-.5,3.236,3.236,0,0,0-.826-.6.285.285,0,0,0-.117.069.387.387,0,0,1-.134.08c-.246.048-.422.225-.668.668s-.336.563-.416.563c-.032,0-.135-.1-.421-.4-.086-.091-.213-.225-.283-.3l-.3-.312-.332-.34c-.19-.193-.685-.67-.826-.8-.26-.232-.513-.46-.6-.542l-.682-.628a8.57,8.57,0,0,0-.683-.574,1.72,1.72,0,0,1-.616-1.435A1.637,1.637,0,0,1,4.5,30.018c.308-.348,1.018-1.06,1.762-1.77a11.11,11.11,0,0,1,.988-.9,11.584,11.584,0,0,1,1.033-.709,7.732,7.732,0,0,0,.764-.536l.036-.035-.018-.2c-.021-.222-.073-.63-.128-.993a9.9,9.9,0,0,1-.03-2.353c.02-.17.064-.566.1-.881.084-.791.14-1.219.208-1.573a4.636,4.636,0,0,1,.271-.938c.164-.458.419-1.162.5-1.394.033-.089.12-.333.194-.542a4.915,4.915,0,0,1,.35-.832,2.916,2.916,0,0,1,.889-.961.828.828,0,0,0,.172-.151c.012-.024.055-.138.1-.253s.153-.419.249-.675.187-.522.2-.591a1.246,1.246,0,0,0-.116-.757,8.394,8.394,0,0,1-.383-1.729c-.014-.1-.031-.22-.038-.267-.035-.225-.122-1.283-.142-1.728a1.3,1.3,0,0,1,.249-.96c.146-.186.2-.232.288-.246.066-.01.085,0,.192.07.065.044.219.145.342.224A8.462,8.462,0,0,1,14.423,9.93c.646.694.643.692.994.6.33-.083.453-.063.645.1a1,1,0,0,1,.28.327.327.327,0,0,0,.044.085.192.192,0,0,0,.1-.026,1.243,1.243,0,0,1,1.05.093,2.4,2.4,0,0,1,.808.848,2.234,2.234,0,0,1,.217.588c.011.066.038.193.06.282a1.654,1.654,0,0,1-.076,1.017c-.086.327-.113.433-.138.558a.539.539,0,0,1-.23.331c-.108.082-.122.1-.126.153s-.015.067-.038.078-.04.046-.06.139a1.224,1.224,0,0,1-.353.608c-.079.069-.571.395-.756.5a1.124,1.124,0,0,0-.175.134c-.192.181-.289.146-.606-.221a1.093,1.093,0,0,0-.162-.166.727.727,0,0,0-.232.242.956.956,0,0,0-.121.459l-.017.2.056.2.1.363a3.558,3.558,0,0,0,.231.616.707.707,0,0,0,.139.085,2.335,2.335,0,0,1,.5.414,13.237,13.237,0,0,1,.9,1.17,5.807,5.807,0,0,1,.4.754,3.054,3.054,0,0,0,.759,1.055l.271.273c.293.3.639.63.753.722.061.05.254.181.429.29a1.855,1.855,0,0,1,.735.683,7.381,7.381,0,0,1,.575,1.024A7.328,7.328,0,0,0,22.1,25.8a5.7,5.7,0,0,0,.757.993.684.684,0,0,1,.129.17,3.765,3.765,0,0,0,.349.654,1.12,1.12,0,0,0,.345.351,3.026,3.026,0,0,0,.766.32c.041.012.058.029.065.064a.134.134,0,0,1-.078.173c-.069.034-.069.034-.353-.037-.327-.082-.333-.083-.3-.038s.412.411.533.516a2.067,2.067,0,0,0,.365.237.2.2,0,0,1,.1.279c-.057.1-.172.073-.52-.144-.008-.005,0,.014.021.042a1.4,1.4,0,0,0,.247.184.743.743,0,0,1,.217.167.129.129,0,0,1-.059.143c-.047.038-.075.044-.2.044a.3.3,0,0,1-.234-.062c-.051-.034-.128-.091-.171-.126a2,2,0,0,0-.632-.358.933.933,0,0,0,.063.169c.089.2.11.318.076.411s-.062.1-.133.07a.856.856,0,0,1-.352-.476,1.16,1.16,0,0,0-.133-.229,1.955,1.955,0,0,1-.332-.6,2.1,2.1,0,0,1-.127-.656c-.014-.266-.013-.263-.216-.533a5.988,5.988,0,0,0-.655-.711,15.333,15.333,0,0,1-1.36-1.527,8.14,8.14,0,0,0-.587-.685c-.074-.075-.221-.247-.327-.38a5.7,5.7,0,0,0-.676-.714l-.1-.093-.171-.154-.225-.2-.208-.185c-.317-.278-.839-.755-.9-.82-.02-.023-.064-.066-.1-.095-.054-.048-.147-.142-.366-.372-.044-.046-.165-.183-.269-.306a2.972,2.972,0,0,0-.569-.576.394.394,0,0,0-.3-.092,2.972,2.972,0,0,0-1.392.4,4.73,4.73,0,0,0-1.163.932,2.139,2.139,0,0,0-.289.449.262.262,0,0,1-.071.1l-.052.044.01.2a1.318,1.318,0,0,1-.014.335.929.929,0,0,0,.012.467c.043.132.158.43.312.81a4.729,4.729,0,0,1,.424,2.008,2.96,2.96,0,0,1-.321,1.391.414.414,0,0,0-.071.283,2.547,2.547,0,0,0,.3,1c.241.608.417,1.086.532,1.451a2.025,2.025,0,0,0,.108.278.628.628,0,0,1,.1.363,1.9,1.9,0,0,0,.05.324,1.139,1.139,0,0,0,.15.339,1.255,1.255,0,0,1,.107.338c.025.106.033.118.1.156s.075.058.143.229c.041.1.1.278.13.388a1.107,1.107,0,0,0,.188.443c.229.357.589.922.629.99.094.156.259.452.3.537.023.049.119.243.212.43s.192.392.221.455c.227.5.476,1.126.591,1.47.087.261.175.552.44,1.451.114.389.224.758.243.821.141.463.178.579.244.75a.852.852,0,0,1,.066.231.164.164,0,0,1-.08.077c-.082.045-.089.074-.043.163a.294.294,0,0,1,.03.111c0,.049-.011.06-.119.123s-.119.075-.119.115a1.718,1.718,0,0,0,.075.268,2.113,2.113,0,0,0,.876,1.174.617.617,0,0,1,.223.786,2.038,2.038,0,0,1-.4.726,1.581,1.581,0,0,0-.326.659,2.155,2.155,0,0,0-.062.978,2.7,2.7,0,0,1,.03.321.752.752,0,0,1-.23.607,1.217,1.217,0,0,1-.513.02ZM11.136,34.164a1.452,1.452,0,0,0,.156-.11,2.681,2.681,0,0,1,.452-.29.505.505,0,0,1,.16-.04c.057,0,.067-.006.067-.037a4.181,4.181,0,0,0-.226-.65,8.2,8.2,0,0,0-.985-1.8,6.059,6.059,0,0,1-.615-.989.643.643,0,0,0-.086-.147c-.036-.036-.041-.036-.092-.008a8.773,8.773,0,0,1-.894.442,9.893,9.893,0,0,1-1.234.434c-.18.045-.238.066-.238.086s.025.023.056.029a1.611,1.611,0,0,1,.523.266,4.331,4.331,0,0,1,.648.531l.274.257c.124.115.85.734,1.088.928.622.507.6.485.622.578a.277.277,0,0,1-.016.182.558.558,0,0,1-.046.124c-.024.019-.013.1.021.137a.53.53,0,0,0,.234.138.392.392,0,0,0,.13-.057ZM13.8,12.688a2.76,2.76,0,0,0,.285-.312c.161-.194.159-.186.177-.629.009-.211.012-.4.007-.43-.01-.049-.076-.109-.6-.541-.381-.316-.442-.349-.649-.349a.41.41,0,0,0-.131.011c0,.006.016.094.036.2s.054.3.076.443a2.041,2.041,0,0,0,.189.664l.132.248a5.058,5.058,0,0,1,.277.654c.034.111.055.152.079.152a1.265,1.265,0,0,0,.119-.107Z" transform="translate(-3.972 -8.044)" fill="#fff"/>
  <path id="path3409" d="M17.138,46.68a1.544,1.544,0,0,0-.275-.007,1.306,1.306,0,0,1-.518-.058.319.319,0,0,1-.146-.238c-.015-.146.06-.212.22-.195a.168.168,0,0,0,.2-.12.3.3,0,0,1,.207-.188c.123-.041.159-.1.127-.21-.008-.026-.035-.148-.06-.271a3.312,3.312,0,0,0-.1-.369,1.65,1.65,0,0,1-.1-.69V44.02l-.09-.477a11.789,11.789,0,0,0-.332-1.567c-.016-.028-.024-.028-.1,0-.134.05-.161.027-.293-.259a5.617,5.617,0,0,0-.4-.743,8.758,8.758,0,0,1-.5-.9c-.535-1.03-.953-1.874-1.13-2.282-.218-.5-.3-.637-.393-.686a5.478,5.478,0,0,0-.733-.183.937.937,0,0,1-.562-.263,2.4,2.4,0,0,0-.485-.3,3.025,3.025,0,0,1-.706-.485,5.1,5.1,0,0,0-.76-.576l-.077-.039-.088.076a.371.371,0,0,1-.181.1c-.214.044-.407.244-.636.657-.243.439-.337.568-.414.568-.037,0-.07-.031-.34-.322-.09-.1-.234-.247-.321-.335l-.379-.388c-.519-.534-.816-.822-1.262-1.223-.2-.176-.4-.361-.453-.41l-.682-.628a8.181,8.181,0,0,0-.685-.574,1.464,1.464,0,0,1-.458-.586,2.327,2.327,0,0,1-.153-1.022c.048-.5.183-.728.878-1.452.452-.471,1.639-1.626,2.086-2.03.109-.1.446-.367.591-.471s.957-.629.972-.629.5-.358.541-.4l.036-.035-.018-.189c-.021-.219-.075-.638-.127-.984a10.125,10.125,0,0,1-.03-2.391c.02-.17.064-.566.1-.881.085-.8.142-1.231.211-1.584a4.075,4.075,0,0,1,.213-.765c.038-.105.092-.255.119-.334s.086-.242.131-.363.146-.4.223-.611l.2-.554c.033-.089.081-.227.107-.306a3.056,3.056,0,0,1,1.213-1.705.441.441,0,0,0,.232-.309c.046-.142.261-.729.372-1.015a1.277,1.277,0,0,0,.132-.548,1.255,1.255,0,0,0-.106-.481,4.256,4.256,0,0,1-.2-.645,11.265,11.265,0,0,1-.21-1.14l-.037-.267c-.042-.3-.123-1.3-.141-1.738a1.219,1.219,0,0,1,.266-.988c.174-.216.237-.249.365-.193a.467.467,0,0,1,.1.053c.009.01.182.126.385.258a7.918,7.918,0,0,1,.771.539,10.18,10.18,0,0,1,1.149,1.1,3.424,3.424,0,0,0,.52.5c.1.065.171.067.38.015a.844.844,0,0,1,.485-.019,1.185,1.185,0,0,1,.451.452.316.316,0,0,0,.044.082c.008.007.051,0,.094-.026a1.066,1.066,0,0,1,.506-.073,1.618,1.618,0,0,1,1.2.781,1.926,1.926,0,0,1,.365.844,2.122,2.122,0,0,0,.053.24,1.018,1.018,0,0,1,.041.353,3.068,3.068,0,0,1-.2.974c-.025.095-.049.2-.054.241a.545.545,0,0,1-.235.337c-.106.08-.123.1-.127.151a.093.093,0,0,1-.037.077c-.024.014-.04.053-.059.146a1.189,1.189,0,0,1-.353.6,8.025,8.025,0,0,1-.733.48.97.97,0,0,0-.178.135c-.2.19-.3.154-.627-.231A1.6,1.6,0,0,0,16,16.035a.674.674,0,0,0-.1.074.794.794,0,0,0-.229.362,1.956,1.956,0,0,0-.054.493,7.754,7.754,0,0,0,.336,1.085c.052.111.057.116.195.188a3.154,3.154,0,0,1,.936.948,5.837,5.837,0,0,1,.863,1.395,2.919,2.919,0,0,0,.745,1.036l.271.273c.291.3.639.63.753.723.061.05.255.181.43.291a4.3,4.3,0,0,1,.394.27,3.4,3.4,0,0,1,.594.815,5.636,5.636,0,0,1,.337.64,7.494,7.494,0,0,0,.653,1.185,6.862,6.862,0,0,0,.8,1.064.622.622,0,0,1,.179.257,2.757,2.757,0,0,0,.472.784,2.291,2.291,0,0,0,.925.462c.133.029.115.2-.024.234a1.366,1.366,0,0,1-.343-.062,1.58,1.58,0,0,0-.3-.06c-.02.026.034.085.366.4a2.292,2.292,0,0,0,.614.442.152.152,0,0,1,.048.078c.036.11-.011.2-.1.2a1.224,1.224,0,0,1-.4-.189.753.753,0,0,0-.161-.09c0,.005.008.019.028.032a.839.839,0,0,1,.1.094,1.215,1.215,0,0,0,.313.227.742.742,0,0,1,.154.115c.068.1-.045.192-.229.192a.55.55,0,0,1-.375-.166,2.116,2.116,0,0,0-.673-.387.484.484,0,0,0,.049.148,1.119,1.119,0,0,1,.107.369.225.225,0,0,1-.035.1c-.034.051-.037.051-.1.028a.841.841,0,0,1-.354-.477,1.153,1.153,0,0,0-.125-.22,1.956,1.956,0,0,1-.287-.489,2.084,2.084,0,0,1-.165-.744.713.713,0,0,0-.214-.55,6.04,6.04,0,0,0-.664-.721,15.486,15.486,0,0,1-1.353-1.518,8.2,8.2,0,0,0-.579-.678c-.061-.062-.205-.229-.32-.371a5.942,5.942,0,0,0-.691-.73l-.1-.093-.171-.154-.225-.2-.208-.185c-.28-.245-.782-.7-.867-.792-.037-.038-.094-.093-.126-.122-.054-.048-.149-.145-.366-.373-.044-.046-.165-.183-.269-.306a2.884,2.884,0,0,0-.583-.586.4.4,0,0,0-.295-.1,2.752,2.752,0,0,0-1,.219,4.743,4.743,0,0,0-1.317.872,2.758,2.758,0,0,0-.5.638.876.876,0,0,1-.115.178l-.044.04.009.214a1.248,1.248,0,0,1-.015.334.921.921,0,0,0,.086.648c.061.165.151.395.2.51a6.5,6.5,0,0,1,.408,1.319,4.965,4.965,0,0,1,.024,1.287,3.156,3.156,0,0,1-.3.927l-.077.153.009.124a2.537,2.537,0,0,0,.3.974c.162.392.4,1.051.526,1.435a2.378,2.378,0,0,0,.123.318.577.577,0,0,1,.085.319,1.377,1.377,0,0,0,.185.657.864.864,0,0,1,.1.266c.055.226.058.232.136.279.052.032.073.063.12.176.031.075.086.239.121.363a1.474,1.474,0,0,0,.22.526,17.386,17.386,0,0,1,.929,1.527c.023.049.12.247.215.439.225.457.3.611.452.987a18.632,18.632,0,0,1,.789,2.377c.1.348.2.684.22.747.134.442.179.58.254.782.1.257.1.263-.013.33-.038.024-.069.052-.069.062a.624.624,0,0,0,.038.112.275.275,0,0,1,.028.124.388.388,0,0,1-.127.1c-.087.051-.117.078-.117.105a3.151,3.151,0,0,0,.217.626,2.052,2.052,0,0,0,.684.785.63.63,0,0,1,.278.815,1.975,1.975,0,0,1-.4.739,1.658,1.658,0,0,0-.317.621,2.183,2.183,0,0,0-.074,1,1.139,1.139,0,0,1-.1.835.333.333,0,0,1-.123.112,1.521,1.521,0,0,1-.485,0ZM11.166,34.3a2.971,2.971,0,0,0,.347-.242c.037-.029.257-.163.311-.19a.557.557,0,0,1,.149-.036l.1-.011,0-.061a8.074,8.074,0,0,0-.358-.96,8.545,8.545,0,0,0-.859-1.5,6.169,6.169,0,0,1-.608-.975c-.054-.124-.1-.181-.13-.181a2.054,2.054,0,0,0-.274.134,10.036,10.036,0,0,1-1.892.754,1.4,1.4,0,0,0-.26.087c-.021.027.01.053.08.068a1.82,1.82,0,0,1,.517.265,4.262,4.262,0,0,1,.621.513l.274.257c.121.112.895.773,1.11.948.6.488.6.483.609.589a.392.392,0,0,1-.038.2,1.007,1.007,0,0,0-.046.151c0,.037.06.1.156.162S11.086,34.338,11.166,34.3Zm2.68-21.461.09-.091a4.007,4.007,0,0,0,.323-.37c.093-.136.092-.131.11-.561.014-.346.014-.408,0-.442a9.121,9.121,0,0,0-.962-.8.409.409,0,0,0-.258-.076.4.4,0,0,0-.161.011.365.365,0,0,0,.016.16c.017.078.051.275.076.437s.061.352.08.42a2.131,2.131,0,0,0,.208.468,4.212,4.212,0,0,1,.355.855c.013.047.079.042.129-.01Z" transform="translate(-4.063 -8.133)" fill="#fff"/>
  <path id="path3407" d="M17.281,46.751A1.614,1.614,0,0,0,17,46.746a1.178,1.178,0,0,1-.5-.059.309.309,0,0,1-.119-.243.371.371,0,0,1,.011-.105.173.173,0,0,1,.177-.054.192.192,0,0,0,.221-.113.322.322,0,0,1,.182-.191c.129-.029.192-.1.165-.2-.007-.023-.033-.144-.058-.267a3.7,3.7,0,0,0-.1-.378,1.615,1.615,0,0,1-.094-.678v-.315l-.09-.477a10.417,10.417,0,0,0-.35-1.623c-.016-.021-.029-.021-.076,0a.163.163,0,0,1-.177,0,1.723,1.723,0,0,1-.139-.263,5.612,5.612,0,0,0-.4-.741,8.756,8.756,0,0,1-.5-.9c-.535-1.03-.953-1.874-1.13-2.282-.226-.52-.284-.619-.395-.676A4.817,4.817,0,0,0,12.859,37c-.106-.022-.217-.049-.245-.06a1.049,1.049,0,0,1-.271-.182,1.748,1.748,0,0,0-.208-.147,3.071,3.071,0,0,0-.346-.186,3.093,3.093,0,0,1-.625-.44,4.151,4.151,0,0,0-.859-.628.345.345,0,0,0-.1.07.335.335,0,0,1-.161.086c-.225.043-.432.259-.681.71-.175.316-.325.527-.376.527-.034,0-.053-.018-.362-.347-.106-.113-.251-.264-.321-.335l-.312-.32c-.554-.57-.846-.853-1.3-1.261-.2-.176-.4-.361-.453-.41l-.682-.628a8.18,8.18,0,0,0-.685-.574,1.544,1.544,0,0,1-.475-.609,2.012,2.012,0,0,1-.141-.8,1.357,1.357,0,0,1,.219-.88,10.019,10.019,0,0,1,1.2-1.317c.369-.367,1.32-1.279,1.551-1.488.109-.1.446-.367.591-.471s.957-.629.972-.629.5-.358.54-.4l.035-.034-.024-.228c-.026-.246-.063-.527-.12-.907a8.942,8.942,0,0,1-.082-1.052,9.126,9.126,0,0,1,.052-1.416c.02-.17.064-.567.1-.882.081-.766.14-1.214.2-1.532a3.411,3.411,0,0,1,.175-.664l.152-.43c.043-.121.108-.3.145-.4s.131-.358.209-.573l.2-.554c.033-.089.081-.227.107-.306A3.106,3.106,0,0,1,11.7,15.584c.114-.082.155-.122.174-.171.052-.136.264-.723.264-.731s.054-.148.12-.319.133-.362.148-.425a1.137,1.137,0,0,0-.09-.726,3.964,3.964,0,0,1-.2-.649,10.672,10.672,0,0,1-.2-1.079l-.037-.267c-.045-.322-.127-1.34-.142-1.776a1.648,1.648,0,0,1,.068-.685A1.8,1.8,0,0,1,12.14,8.3a.207.207,0,0,1,.258-.014l.428.282a7.9,7.9,0,0,1,1.069.789c.152.134.527.507.754.751a3.857,3.857,0,0,0,.622.61c.112.072.176.077.37.028a1.112,1.112,0,0,1,.508-.027,1.4,1.4,0,0,1,.357.313.734.734,0,0,1,.094.153c.033.082.037.083.191.02a1.916,1.916,0,0,1,.743,0,1.536,1.536,0,0,1,.678.455,3.113,3.113,0,0,1,.422.584,1.754,1.754,0,0,1,.164.489,1.441,1.441,0,0,0,.047.215,1.144,1.144,0,0,1,.048.419,1.4,1.4,0,0,1-.068.516c-.038.147-.092.353-.122.458a1.646,1.646,0,0,0-.053.242.565.565,0,0,1-.238.334c-.117.087-.125.1-.119.165a.055.055,0,0,1-.033.051c-.028.014-.041.045-.063.148a1.221,1.221,0,0,1-.364.618,8,8,0,0,1-.733.48.95.95,0,0,0-.173.13c-.194.183-.277.152-.6-.226a.744.744,0,0,0-.158-.155.651.651,0,0,0-.237.22,1.257,1.257,0,0,0-.155.575.689.689,0,0,0,.042.286,6.623,6.623,0,0,0,.3.942c.049.108.054.113.187.181a3.168,3.168,0,0,1,.942.955,5.882,5.882,0,0,1,.87,1.405,2.938,2.938,0,0,0,.729,1.016l.271.273c.291.3.639.63.753.723.061.05.254.181.428.29a4.2,4.2,0,0,1,.409.283,3.773,3.773,0,0,1,.623.865,5.912,5.912,0,0,1,.31.6,7.353,7.353,0,0,0,.712,1.27,5.544,5.544,0,0,0,.726.956.76.76,0,0,1,.2.293,2.776,2.776,0,0,0,.452.753,2.335,2.335,0,0,0,.9.462.227.227,0,0,1,.108.05.114.114,0,0,1-.019.13c-.047.057-.138.051-.449-.029-.272-.07-.323-.069-.276,0a7.721,7.721,0,0,0,.559.536,1.856,1.856,0,0,0,.4.254c.027,0,.077.1.077.152,0,.114-.1.146-.254.079a2.569,2.569,0,0,1-.249-.144c-.171-.11-.255-.136-.141-.044a1.247,1.247,0,0,1,.111.1.636.636,0,0,0,.217.162c.152.079.256.168.256.219,0,.081-.077.12-.238.12a.469.469,0,0,1-.372-.157,1.879,1.879,0,0,0-.685-.384.46.46,0,0,0,.051.16,2.109,2.109,0,0,1,.081.208.461.461,0,0,1,0,.258c-.029.051-.131.03-.2-.042a1.542,1.542,0,0,1-.25-.412.947.947,0,0,0-.112-.2,2.309,2.309,0,0,1-.412-.839,2.721,2.721,0,0,1-.045-.378.766.766,0,0,0-.212-.574,5.685,5.685,0,0,0-.658-.717c-.386-.384-.79-.821-.994-1.076-.5-.626-.78-.957-.974-1.159-.086-.089-.233-.261-.327-.381a5.443,5.443,0,0,0-.654-.689l-.1-.093-.171-.154-.225-.2-.208-.185c-.3-.263-.774-.695-.864-.788-.035-.036-.093-.093-.128-.126a7.573,7.573,0,0,1-.613-.652A3.171,3.171,0,0,0,16.1,20.9a.708.708,0,0,0-.7-.112,3.792,3.792,0,0,0-1.675.81,2.664,2.664,0,0,0-.824.933.477.477,0,0,1-.094.138l-.052.046.008.228a1.5,1.5,0,0,1-.018.372,1.059,1.059,0,0,0-.019.226,6.447,6.447,0,0,0,.323.9,6.245,6.245,0,0,1,.393,1.26,5.484,5.484,0,0,1,.025,1.361,3.03,3.03,0,0,1-.227.752c-.139.291-.148.32-.137.427a2.91,2.91,0,0,0,.312.983c.162.392.4,1.051.526,1.435a2.372,2.372,0,0,0,.128.327.461.461,0,0,1,.066.262c.006.089.019.205.029.258a1.548,1.548,0,0,0,.168.446.672.672,0,0,1,.085.22c.052.232.071.274.133.306.086.044.159.2.26.565a1.493,1.493,0,0,0,.218.519,17.417,17.417,0,0,1,.929,1.527c.023.049.12.247.215.439.225.457.3.611.452.987a18.633,18.633,0,0,1,.789,2.377c.1.348.2.684.22.747.136.448.178.577.245.754a1.491,1.491,0,0,1,.075.241c0,.031-.02.053-.082.09a.293.293,0,0,0-.082.062.78.78,0,0,0,.039.1.354.354,0,0,1,.033.127c0,.022-.049.064-.124.112-.1.067-.118.082-.115.124a3.137,3.137,0,0,0,.213.612,2.1,2.1,0,0,0,.73.828.548.548,0,0,1,.272.55,1.726,1.726,0,0,1-.435.941,2.054,2.054,0,0,0-.406,1.01,1.582,1.582,0,0,0,0,.595,2.094,2.094,0,0,1,.008.645.6.6,0,0,1-.147.281c-.045.044-.06.047-.264.049a2.341,2.341,0,0,1-.312-.014ZM11.368,34.382a1.575,1.575,0,0,0,.149-.1c.34-.257.49-.34.613-.34a.131.131,0,0,0,.1-.03.135.135,0,0,0,.023-.038c0-.026-.152-.442-.248-.677a8.25,8.25,0,0,0-.994-1.822,6.169,6.169,0,0,1-.608-.975c-.049-.112-.1-.181-.12-.181-.01,0-.135.064-.279.142A9.612,9.612,0,0,1,8.17,31.1c-.292.078-.327.092-.327.123s.037.059.134.083a1.4,1.4,0,0,1,.462.243,4.255,4.255,0,0,1,.617.509l.274.257c.121.112.895.773,1.11.948A6.336,6.336,0,0,1,11,33.73a.165.165,0,0,1,.056.146.561.561,0,0,1-.045.2c-.053.134-.047.163.046.238C11.194,34.427,11.254,34.44,11.368,34.382Zm2.64-21.438a.242.242,0,0,1,.052-.048.179.179,0,0,0,.044-.043c.02-.024.065-.073.1-.11a1.874,1.874,0,0,0,.3-.409,2.832,2.832,0,0,0,.038-.439c.015-.339.014-.377-.009-.426s-.077-.1-.58-.516c-.4-.33-.521-.4-.706-.383a.3.3,0,0,0-.113.022.774.774,0,0,0,.021.19c.018.1.05.288.071.424s.055.313.076.391a2.216,2.216,0,0,0,.2.467,4.334,4.334,0,0,1,.377.893c.013.048.075.041.126-.014Z" transform="translate(-4.228 -8.222)" fill="#fff"/>
  <path id="path3405" d="M17.29,46.781a1.609,1.609,0,0,0-.282-.006,1.064,1.064,0,0,1-.51-.067.3.3,0,0,1-.121-.243c0-.121.033-.147.191-.149s.2-.029.232-.134a.3.3,0,0,1,.187-.172c.165-.039.178-.078.119-.349a3.612,3.612,0,0,0-.141-.552,1.549,1.549,0,0,1-.082-.642v-.309l-.09-.477a9.874,9.874,0,0,0-.349-1.614c-.014-.015-.038-.013-.088.009-.136.059-.161.039-.292-.245a5.6,5.6,0,0,0-.4-.737,8.755,8.755,0,0,1-.5-.9c-.535-1.03-.953-1.874-1.13-2.282-.217-.5-.3-.643-.4-.7a3.518,3.518,0,0,0-.674-.172c-.143-.031-.29-.066-.327-.079a1.054,1.054,0,0,1-.3-.2,2.478,2.478,0,0,0-.524-.312,3.355,3.355,0,0,1-.654-.459,3.483,3.483,0,0,0-.841-.609.344.344,0,0,0-.121.076.321.321,0,0,1-.129.076.523.523,0,0,0-.282.136,1.9,1.9,0,0,0-.4.54c-.07.127-.16.283-.2.347-.069.112-.168.218-.2.218a2.046,2.046,0,0,1-.264-.255c-.019-.028-.289-.309-.507-.529l-.3-.305c-.494-.508-.934-.934-1.294-1.25-.145-.127-.4-.36-.7-.638-.449-.415-.553-.509-.737-.664-.106-.09-.249-.2-.32-.252a1.362,1.362,0,0,1-.452-.591,2.014,2.014,0,0,1-.148-.8c0-.63.113-.85.867-1.635.414-.431,1.078-1.081,1.863-1.822a8.219,8.219,0,0,1,1.377-1.053l.342-.216a6.088,6.088,0,0,0,.616-.447l.041-.042L9.347,26.1c-.021-.217-.077-.645-.127-.974a8.785,8.785,0,0,1-.082-1.042A8.913,8.913,0,0,1,9.19,22.7c.02-.17.064-.566.1-.881.084-.8.142-1.231.21-1.578a4.268,4.268,0,0,1,.242-.833c.054-.15.1-.276.1-.28s.043-.122.1-.262.16-.436.24-.656l.2-.554c.031-.084.077-.217.1-.3a3.049,3.049,0,0,1,1.215-1.726.461.461,0,0,0,.235-.306c.03-.092.222-.616.389-1.062a1.294,1.294,0,0,0,.122-.514,1.59,1.59,0,0,0-.141-.583,8.145,8.145,0,0,1-.372-1.672l-.038-.267c-.044-.309-.125-1.322-.142-1.757a1.216,1.216,0,0,1,.23-.942c.2-.269.283-.3.465-.177l.451.3a8.6,8.6,0,0,1,2,1.751,2.907,2.907,0,0,0,.238.24.43.43,0,0,0,.523.139,1.036,1.036,0,0,1,.491-.027,1.227,1.227,0,0,1,.442.437c.045.114.06.122.145.08a1.283,1.283,0,0,1,1.3.248,2.251,2.251,0,0,1,.772,1.265,2.119,2.119,0,0,0,.054.242,1.055,1.055,0,0,1,.041.372,1.383,1.383,0,0,1-.068.5c-.038.147-.092.353-.121.458a1.65,1.65,0,0,0-.053.241.506.506,0,0,1-.2.316c-.153.119-.17.137-.17.186a.106.106,0,0,1-.03.071.37.37,0,0,0-.057.151,1.187,1.187,0,0,1-.344.592c-.079.069-.65.443-.758.5a1.059,1.059,0,0,0-.163.129c-.111.1-.112.1-.2.1s-.159-.05-.344-.262c-.06-.069-.132-.15-.16-.18l-.051-.054-.08.058a.83.83,0,0,0-.29.537.953.953,0,0,0,.017.525,6.637,6.637,0,0,0,.287.908c.058.132.059.133.217.215a3.21,3.21,0,0,1,.93.947A5.755,5.755,0,0,1,18.1,20.7a2.711,2.711,0,0,0,.562.85c.06.063.121.127.134.143s.065.067.114.114.152.151.23.23c.26.265.63.621.743.713.061.05.255.181.429.291a2.006,2.006,0,0,1,.542.422,4.423,4.423,0,0,1,.333.48,6.528,6.528,0,0,1,.435.805,7.431,7.431,0,0,0,.711,1.27,6.021,6.021,0,0,0,.742.977.791.791,0,0,1,.151.194c.1.21.129.269.2.417a1.943,1.943,0,0,0,.381.51,2.455,2.455,0,0,0,.809.384c.142.037.17.085.1.173-.05.064-.1.062-.435-.023a1.442,1.442,0,0,0-.3-.057c-.025.033.071.147.312.372a2.305,2.305,0,0,0,.638.48.143.143,0,0,1,.078.078c.029.073.028.107-.008.152-.06.077-.176.041-.472-.15-.1-.064-.185-.117-.189-.117s-.008.011-.008.025.025.043.056.065a.822.822,0,0,1,.111.1.886.886,0,0,0,.279.2c.158.095.2.137.188.189s-.1.1-.236.1a.537.537,0,0,1-.382-.176,3.9,3.9,0,0,0-.479-.312c-.159-.074-.191-.083-.2-.057a.554.554,0,0,0,.055.166c.107.241.129.372.076.456-.079.125-.29-.088-.434-.437a1.293,1.293,0,0,0-.13-.229,1.915,1.915,0,0,1-.29-.5,1.878,1.878,0,0,1-.159-.714,1.774,1.774,0,0,0-.029-.277,2.524,2.524,0,0,0-.27-.4,5.316,5.316,0,0,0-.459-.494c-.29-.288-.7-.716-.728-.752,0-.006-.064-.076-.134-.154-.168-.19-.264-.3-.625-.747a8.216,8.216,0,0,0-.591-.69c-.043-.041-.177-.2-.3-.346a5.972,5.972,0,0,0-.7-.738c-.061-.053-.265-.235-.333-.3s-.2-.184-.468-.418c-.074-.065-.2-.179-.282-.254s-.2-.181-.26-.235-.141-.13-.177-.168-.107-.108-.158-.155a9.506,9.506,0,0,1-.809-.871,1.585,1.585,0,0,0-.584-.5,2.143,2.143,0,0,0-1.1.176,4.644,4.644,0,0,0-1.616,1.143,2.367,2.367,0,0,0-.3.46.34.34,0,0,1-.072.1l-.06.061.009.216a1.4,1.4,0,0,1-.017.36.944.944,0,0,0,.093.634c.058.158.15.39.2.516a6.336,6.336,0,0,1,.4,1.279,5.262,5.262,0,0,1,.025,1.321,3.039,3.039,0,0,1-.289.894.429.429,0,0,0-.074.278,1.782,1.782,0,0,0,.151.631l.215.533c.14.346.363.962.467,1.288a2.3,2.3,0,0,0,.127.32.488.488,0,0,1,.072.278,1.409,1.409,0,0,0,.173.654.788.788,0,0,1,.121.32c.04.183.054.212.127.252.057.031.071.053.131.2.037.093.092.259.123.37a1.747,1.747,0,0,0,.341.7c.107.159.549.869.642,1.031.042.074.1.187.134.251l.229.468c.226.46.3.613.453.989a18.837,18.837,0,0,1,.8,2.415c.1.348.2.688.223.756l.09.3c.029.095.092.282.141.416a1.339,1.339,0,0,1,.081.273.2.2,0,0,1-.083.068c-.043.023-.074.052-.074.069a.438.438,0,0,0,.038.113.263.263,0,0,1,.03.117.365.365,0,0,1-.129.1l-.121.071.01.063a2.56,2.56,0,0,0,.072.254,2.118,2.118,0,0,0,.838,1.157c.254.193.333.337.311.568a1.783,1.783,0,0,1-.437.949,1.956,1.956,0,0,0-.4.992,1.779,1.779,0,0,0,0,.635,1.666,1.666,0,0,1-.014.684.481.481,0,0,1-.176.251,1.474,1.474,0,0,1-.517,0ZM11.332,34.437a2.415,2.415,0,0,0,.348-.239,1,1,0,0,1,.47-.228c.1,0,.123-.031.1-.13-.01-.039-.075-.216-.143-.395a8.3,8.3,0,0,0-1.07-2.023,6.163,6.163,0,0,1-.608-.975c-.052-.119-.11-.2-.143-.2a2.44,2.44,0,0,0-.286.142,9.539,9.539,0,0,1-1.876.747c-.264.071-.32.1-.269.152a.234.234,0,0,0,.1.04,1.489,1.489,0,0,1,.495.258,4.29,4.29,0,0,1,.63.519l.274.257c.121.112.895.773,1.11.948l.331.269c.222.18.268.235.268.325a.634.634,0,0,1-.045.183.766.766,0,0,0-.045.139c0,.039.073.12.156.172.128.08.121.079.209.04ZM14.015,12.98c.124-.123.177-.178.249-.259a1.507,1.507,0,0,0,.2-.256c.066-.1.075-.168.092-.648a.994.994,0,0,0-.01-.321,4.282,4.282,0,0,0-.6-.53,1.724,1.724,0,0,0-.482-.337.488.488,0,0,0-.318-.007c-.023.022-.023.032,0,.119.012.053.046.246.075.43a2.217,2.217,0,0,0,.295.945c.026.042.065.112.087.157.054.108.221.526.26.65.027.085.037.1.071.1A.147.147,0,0,0,14.015,12.98Z" transform="translate(-4.23 -8.252)" fill="#fff"/>
  <path id="path3403" d="M17.308,46.82a1.448,1.448,0,0,0-.269-.008,1.138,1.138,0,0,1-.526-.066.333.333,0,0,1-.134-.244c0-.072.043-.138.093-.141l.142,0c.1,0,.111-.005.149-.066.124-.2.14-.212.3-.26a.132.132,0,0,0,.066-.061c.022-.043.023-.06.006-.138-.011-.049-.039-.183-.063-.3a3.631,3.631,0,0,0-.1-.363,1.615,1.615,0,0,1-.094-.678v-.315l-.09-.477a9.619,9.619,0,0,0-.339-1.577l-.027-.043-.083.034c-.125.051-.141.035-.3-.3a7.282,7.282,0,0,0-.462-.826c-.225-.352-1.275-2.422-1.568-3.093-.194-.444-.284-.6-.381-.65a4.285,4.285,0,0,0-.659-.163c-.143-.031-.29-.066-.327-.078a1.153,1.153,0,0,1-.328-.219,2.7,2.7,0,0,0-.5-.3,3.611,3.611,0,0,1-.676-.471,6.4,6.4,0,0,0-.654-.512c-.181-.117-.185-.118-.289-.027a.514.514,0,0,1-.119.085.552.552,0,0,0-.312.146,1.7,1.7,0,0,0-.356.467c-.248.455-.364.62-.435.62-.026,0-.1-.073-.37-.357-.1-.1-.318-.332-.432-.446l-.3-.306c-.468-.483-.8-.8-1.425-1.364-.319-.288-.418-.378-.8-.726a9.221,9.221,0,0,0-.817-.7,1.466,1.466,0,0,1-.545-.952,1.827,1.827,0,0,1-.039-.412c0-.6.131-.859.8-1.558.468-.489,1.743-1.73,2.177-2.12a10.315,10.315,0,0,1,1.367-.976c.208-.133.464-.307.568-.387.158-.122.189-.154.189-.192,0-.114-.064-.64-.142-1.157a10.149,10.149,0,0,1-.03-2.391c.02-.17.064-.566.1-.881A12.085,12.085,0,0,1,9.6,19.867c.058-.18.431-1.22.673-1.878.033-.089.12-.333.194-.542a4.579,4.579,0,0,1,.355-.836,2.822,2.822,0,0,1,.872-.932l.168-.122.053-.144c.029-.079.075-.2.1-.278s.122-.331.212-.573a1.926,1.926,0,0,0,.215-.78,1.671,1.671,0,0,0-.143-.587,8.218,8.218,0,0,1-.373-1.678l-.038-.267c-.042-.3-.123-1.3-.141-1.738A1.235,1.235,0,0,1,12,8.545c.195-.247.263-.268.451-.14.064.043.227.15.363.238a8.422,8.422,0,0,1,1.9,1.611,4.854,4.854,0,0,0,.563.553c.09.06.188.063.4.01a.684.684,0,0,1,.526.01,1.435,1.435,0,0,1,.365.373.625.625,0,0,0,.066.115c.028.033.032.033.11-.005a1.214,1.214,0,0,1,.953.038,2.225,2.225,0,0,1,1.093,1.419c.009.052.037.181.062.286a1.459,1.459,0,0,1,.043.561c-.01.062-.058.267-.108.454s-.1.392-.113.455a.579.579,0,0,1-.239.432c-.112.081-.151.128-.151.184,0,.03-.01.05-.029.056s-.036.041-.052.118a1.221,1.221,0,0,1-.323.6,8.008,8.008,0,0,1-.772.516,1.236,1.236,0,0,0-.192.145.5.5,0,0,1-.116.091c-.111.036-.246-.058-.483-.337a1.042,1.042,0,0,0-.146-.153.583.583,0,0,0-.209.185,1.027,1.027,0,0,0-.184.617c-.011.155-.014.137.146.707a2.852,2.852,0,0,0,.244.631.618.618,0,0,0,.154.1,3.931,3.931,0,0,1,1.08,1.132,6.815,6.815,0,0,1,.593.951l.109.246a3.677,3.677,0,0,0,.976,1.27A5.468,5.468,0,0,0,20.328,23.1a3.541,3.541,0,0,1,.424.3,5.529,5.529,0,0,1,.836,1.325,7.691,7.691,0,0,0,.839,1.468,6.256,6.256,0,0,0,.669.87.6.6,0,0,1,.12.152c.368.782.522.967.979,1.174a2.418,2.418,0,0,0,.422.154c.126.033.129.035.129.1a.085.085,0,0,1-.044.085c-.062.041-.1.038-.387-.038-.259-.067-.342-.08-.342-.052a3.229,3.229,0,0,0,.576.593,2.7,2.7,0,0,0,.408.267.179.179,0,0,1,.065.081c.023.057.023.063,0,.111-.056.1-.15.072-.453-.124a1.42,1.42,0,0,0-.212-.122c-.041,0-.023.036.048.1.039.034.092.085.118.114a1.758,1.758,0,0,0,.247.177.919.919,0,0,1,.209.156c.024.079-.079.142-.232.142a.316.316,0,0,1-.212-.064,2.035,2.035,0,0,1-.185-.131,3.44,3.44,0,0,0-.449-.293,1.62,1.62,0,0,0-.208-.085c-.027,0-.006.083.055.223.106.242.124.4.051.446-.094.065-.277-.14-.409-.458a1.906,1.906,0,0,0-.173-.283,2.236,2.236,0,0,1-.375-.831,2.909,2.909,0,0,1-.038-.35l-.013-.239-.062-.105a5.143,5.143,0,0,0-.817-.942,17.5,17.5,0,0,1-1.39-1.557c-.221-.271-.465-.557-.542-.637s-.238-.265-.357-.413a9.463,9.463,0,0,0-1.29-1.261c-.1-.084-.273-.243-.4-.353l-.334-.3c-.062-.056-.143-.134-.18-.173s-.1-.1-.149-.145c-.074-.067-.208-.2-.444-.452-.046-.048-.178-.2-.294-.337-.4-.476-.547-.577-.827-.577a3.079,3.079,0,0,0-.664.116,4.174,4.174,0,0,0-1.59.949,3.184,3.184,0,0,0-.549.7.453.453,0,0,1-.1.148l-.051.041.01.223a1.28,1.28,0,0,1-.015.343c-.06.3-.044.36.324,1.267a6.37,6.37,0,0,1,.366,1.171,5.3,5.3,0,0,1,.029,1.327,3.152,3.152,0,0,1-.3.907.4.4,0,0,0-.067.277,2.543,2.543,0,0,0,.3,1c.239.6.414,1.078.532,1.451a2.523,2.523,0,0,0,.127.32.541.541,0,0,1,.078.3,1.314,1.314,0,0,0,.162.625.952.952,0,0,1,.134.355c.032.15.055.191.135.242a1.017,1.017,0,0,1,.207.453l.082.277a1.2,1.2,0,0,0,.13.272l.4.636a11.2,11.2,0,0,1,.577.986c.022.045.108.22.192.388s.175.357.2.42c.226.5.476,1.126.591,1.47.087.261.175.552.44,1.451.114.389.224.758.243.821.145.475.183.593.247.757a.838.838,0,0,1,.064.215.163.163,0,0,1-.074.061c-.1.05-.106.067-.051.19s.057.124-.094.218l-.107.067,0,.076a2.675,2.675,0,0,0,.22.639,2.294,2.294,0,0,0,.7.785.557.557,0,0,1,.29.583,1.9,1.9,0,0,1-.447.933,1.559,1.559,0,0,0-.313.618A2.211,2.211,0,0,0,18,45.9a1.953,1.953,0,0,1,.025.382.688.688,0,0,1-.057.3.469.469,0,0,1-.116.187c-.063.057-.069.058-.253.061a2.021,2.021,0,0,1-.292-.015ZM11.42,34.436a1.462,1.462,0,0,0,.136-.1c.033-.028.151-.11.262-.181a.647.647,0,0,1,.311-.141c.178-.021.177-.036-.046-.606a7.715,7.715,0,0,0-.409-.915,7.82,7.82,0,0,0-.442-.747c-.034-.054-.163-.242-.285-.418a5.977,5.977,0,0,1-.5-.813,1.145,1.145,0,0,0-.108-.188l-.05-.063-.1.057a9.732,9.732,0,0,1-2.18.884.381.381,0,0,0-.169.068c-.013.044.024.08.1.094a1.545,1.545,0,0,1,.514.269,3.765,3.765,0,0,1,.611.5l.26.244c.1.1.928.8,1.135.969.677.553.65.516.56.761a.855.855,0,0,0-.045.149c0,.044.089.143.178.2s.156.054.272-.022Zm2.567-21.385a.25.25,0,0,1,.061-.057.469.469,0,0,0,.078-.07l.116-.129a1.946,1.946,0,0,0,.273-.364,2.417,2.417,0,0,0,.039-.456c.015-.367.014-.405-.009-.451a4.3,4.3,0,0,0-.633-.557,1.434,1.434,0,0,0-.43-.3.663.663,0,0,0-.341-.014c-.017.014-.014.049.017.2.021.1.056.3.077.446a2,2,0,0,0,.286.869,4.654,4.654,0,0,1,.319.739c.034.11.053.149.077.155l.041.011C13.963,13.08,13.976,13.067,13.987,13.051Z" transform="translate(-4.232 -8.291)" fill="#fff"/>
  <path id="path3401" d="M17.349,46.791a1.768,1.768,0,0,0-.29-.005,1.027,1.027,0,0,1-.485-.06.276.276,0,0,1-.116-.232c0-.11.025-.13.169-.131s.2-.029.242-.133a.3.3,0,0,1,.206-.182.185.185,0,0,0,.143-.134,4.811,4.811,0,0,0-.193-.831l-.053-.153-.009-.4-.009-.4-.086-.439-.159-.818a3.705,3.705,0,0,0-.192-.777c-.026-.034-.033-.034-.09-.008-.076.034-.134.036-.165,0a2.1,2.1,0,0,1-.124-.243,5.484,5.484,0,0,0-.393-.726c-.07-.11-.155-.248-.188-.306-.089-.155-.593-1.13-.84-1.623-.4-.808-.466-.937-.633-1.318a3.054,3.054,0,0,0-.268-.535c-.089-.129-.1-.133-.84-.3a.976.976,0,0,1-.569-.26,2.251,2.251,0,0,0-.463-.286,3.4,3.4,0,0,1-.724-.5,6.332,6.332,0,0,0-.65-.509c-.186-.121-.2-.122-.312-.028a.35.35,0,0,1-.125.079.636.636,0,0,0-.316.16A2.27,2.27,0,0,0,9.4,36.3a1.518,1.518,0,0,1-.33.479c-.039.016-.07-.012-.338-.3-.111-.119-.27-.285-.353-.369l-.372-.381c-.519-.534-.816-.822-1.262-1.223-.2-.176-.4-.361-.453-.41l-.682-.628a8.615,8.615,0,0,0-.683-.574,1.745,1.745,0,0,1-.584-1.6,1.578,1.578,0,0,1,.492-1c.355-.4,1.315-1.357,2.249-2.234a8.829,8.829,0,0,1,1.533-1.143,6.4,6.4,0,0,0,.781-.554l.047-.05-.024-.229c-.026-.247-.063-.528-.12-.908a8.942,8.942,0,0,1-.082-1.052,9.125,9.125,0,0,1,.052-1.416c.02-.17.064-.567.1-.882.081-.767.14-1.214.2-1.533a4.561,4.561,0,0,1,.264-.9c.164-.458.419-1.162.5-1.394.033-.089.12-.333.194-.542a4.85,4.85,0,0,1,.351-.832,2.837,2.837,0,0,1,.875-.942.848.848,0,0,0,.18-.161c.015-.029.062-.146.1-.262s.152-.417.247-.67.186-.515.2-.582a1.3,1.3,0,0,0-.123-.838,7.8,7.8,0,0,1-.359-1.623c-.014-.1-.031-.22-.038-.267-.017-.11-.081-.792-.113-1.213-.014-.179-.026-.489-.026-.689V9.01l.063-.163a.965.965,0,0,1,.2-.327c.128-.156.191-.2.271-.2a.584.584,0,0,1,.141.079c.064.043.216.143.339.222a8.671,8.671,0,0,1,2,1.7c.527.563.561.583.869.5a1.454,1.454,0,0,1,.323-.046.317.317,0,0,1,.238.057,1.327,1.327,0,0,1,.345.345c.079.16.084.164.156.136a1.124,1.124,0,0,1,.518-.073,1.084,1.084,0,0,1,.59.166,2.378,2.378,0,0,1,.76.811,2.116,2.116,0,0,1,.21.567,2.12,2.12,0,0,0,.054.244,1.1,1.1,0,0,1,.041.391,2.692,2.692,0,0,1-.183.945,2.224,2.224,0,0,0-.06.259.484.484,0,0,1-.211.309c-.12.09-.164.143-.151.186,0,.013-.009.037-.028.053a.286.286,0,0,0-.061.153,1.438,1.438,0,0,1-.207.45,1.1,1.1,0,0,1-.131.138c-.079.069-.572.395-.758.5a1,1,0,0,0-.166.127c-.186.18-.277.145-.6-.236a.575.575,0,0,0-.155-.146c-.051,0-.173.115-.248.234a1.116,1.116,0,0,0-.149.515l-.017.163.059.217a6.914,6.914,0,0,0,.232.767,1.411,1.411,0,0,0,.115.253.641.641,0,0,0,.146.1,2.327,2.327,0,0,1,.5.415,13.22,13.22,0,0,1,.887,1.156,5.79,5.79,0,0,1,.394.748,3.1,3.1,0,0,0,.774,1.074l.271.273c.293.3.639.63.753.722.061.05.254.181.429.29a1.8,1.8,0,0,1,.713.655c.113.169.356.573.421.7.021.042.094.192.162.334a7.333,7.333,0,0,0,.712,1.27,6.2,6.2,0,0,0,.776,1.018.586.586,0,0,1,.125.171c.043.1.107.227.207.425a2.468,2.468,0,0,0,.333.463,1.857,1.857,0,0,0,.468.278,2.156,2.156,0,0,0,.446.157c.068,0,.09.092.034.142s-.144.037-.428-.037-.3-.077-.307-.037.045.114.17.234l.193.186a2.188,2.188,0,0,0,.574.43.155.155,0,0,1,.1.2c-.014.039-.027.047-.082.047-.086,0-.157-.034-.384-.182a1.861,1.861,0,0,0-.2-.123c-.036,0-.011.07.04.114.031.026.085.077.122.115a2.016,2.016,0,0,0,.26.192c.213.137.239.174.159.234a.286.286,0,0,1-.179.033c-.147,0-.206-.027-.391-.179a1.87,1.87,0,0,0-.672-.368c-.032.016-.023.049.063.246.141.322.086.514-.1.36a1.147,1.147,0,0,1-.252-.4,1.543,1.543,0,0,0-.157-.267,1.786,1.786,0,0,1-.307-.564,1.706,1.706,0,0,1-.113-.591,1.36,1.36,0,0,0-.039-.306,3.506,3.506,0,0,0-.445-.6c-.065-.07-.256-.264-.424-.431a15.407,15.407,0,0,1-1.353-1.518,8.219,8.219,0,0,0-.579-.678c-.061-.062-.205-.229-.32-.371a5.944,5.944,0,0,0-.691-.73l-.1-.093-.171-.154-.225-.2-.208-.185c-.275-.241-.781-.7-.86-.785-.033-.034-.09-.091-.128-.126a7.453,7.453,0,0,1-.618-.656,3.333,3.333,0,0,0-.547-.57c-.219-.158-.355-.176-.736-.1a4,4,0,0,0-1.94,1.047,3.131,3.131,0,0,0-.513.644.952.952,0,0,1-.106.171l-.069.087.008.229a1.4,1.4,0,0,1-.016.35c-.052.261-.033.33.339,1.248a5.629,5.629,0,0,1,.364,1.2,5.537,5.537,0,0,1,.018,1.308,2.962,2.962,0,0,1-.278.853.57.57,0,0,0-.066.474,3.394,3.394,0,0,0,.282.831c.247.622.421,1.1.54,1.47a2.325,2.325,0,0,0,.125.313.374.374,0,0,1,.064.229,1.592,1.592,0,0,0,.174.691.909.909,0,0,1,.13.344c.032.159.055.2.126.24.052.027.066.05.132.214.04.1.1.275.129.385a1.107,1.107,0,0,0,.188.443,17.336,17.336,0,0,1,.929,1.527c.023.049.119.243.212.43s.192.392.221.455c.227.5.476,1.126.591,1.47.087.261.175.552.44,1.451.114.389.224.758.243.821.144.473.182.591.24.739a1.263,1.263,0,0,1,.065.2c0,.018-.033.049-.082.077-.094.053-.1.077-.045.19s.051.131-.075.2a.4.4,0,0,0-.126.1c-.018.044,0,.128.088.377a2.1,2.1,0,0,0,.828,1.115c.253.192.318.313.3.551a1.745,1.745,0,0,1-.438.946,2.314,2.314,0,0,0-.217.334,3.193,3.193,0,0,0-.216.958,2.771,2.771,0,0,0,.031.313,2.5,2.5,0,0,1,.02.594.589.589,0,0,1-.187.342,1.548,1.548,0,0,1-.532.006ZM11.5,34.424a1.447,1.447,0,0,0,.134-.1c.033-.028.145-.106.25-.173a.616.616,0,0,1,.275-.128c.2-.017.2-.036.121-.287-.034-.1-.112-.31-.174-.463a8.186,8.186,0,0,0-.993-1.822,6.158,6.158,0,0,1-.608-.975c-.049-.112-.124-.22-.154-.22a.561.561,0,0,0-.12.055,9.186,9.186,0,0,1-2.031.835,1.6,1.6,0,0,0-.286.1c-.054.045-.02.1.082.122a1.5,1.5,0,0,1,.5.26,4.3,4.3,0,0,1,.644.528c.314.3.364.341.774.691.376.321.485.412.941.782a2.362,2.362,0,0,1,.212.188c.055.066.053.152-.005.313-.046.126-.046.126-.018.175a.4.4,0,0,0,.188.164c.1.051.136.046.27-.041Zm2.579-21.4c.019-.026.041-.048.049-.048a2.59,2.59,0,0,0,.456-.561,3.4,3.4,0,0,0,.039-.887c-.024-.059-.1-.131-.611-.552a1.485,1.485,0,0,0-.48-.33.432.432,0,0,0-.21-.035c-.137.01-.153.029-.125.145.012.05.045.24.074.424a2.305,2.305,0,0,0,.274.926,4.586,4.586,0,0,1,.352.792,1.2,1.2,0,0,0,.053.148C13.974,13.087,14.041,13.074,14.079,13.023Z" transform="translate(-4.296 -8.281)" fill="#fff"/>
  <path id="path3399" d="M17.5,47.362c-1.2.13-.9-.417-.193-.929A7.5,7.5,0,0,1,17,44.455c-.059-1.567-.884-2.108-1.5-3.333-.775-1.054-1.014-2.97-2.114-3.439-1.2.035-2.127-1.761-3.215-1.564-.674.25-.961,1.964-1.636.631-1.222-1.354-2.632-2.418-3.884-3.7-.822-1.627.773-2.665,1.592-3.518A20.31,20.31,0,0,1,9.533,26.9,17.639,17.639,0,0,1,9.75,20.5c.619-1.46.851-3.424,2.106-4.242,1.294-1.353.289-3.185.161-4.874-.317-.88-.131-3.186.967-2.135,1.081.408,1.745,1.984,2.822,2.166.763.126,1.284.606,2.128.569,1.282.615,1.371,2.884.4,3.878a1.622,1.622,0,0,1-2.241,1.054c-.738,1.808,1.21,2.477,1.806,3.752A7.263,7.263,0,0,0,20.79,23.9c1.016,1.236,1.626,2.954,2.686,4.152.122.891,2.292,1.386.693,1.123.106.465,1.8,1.549.3.825.351.352.973.931.053.511-.6-.532-.739-.417-.634.26-.979-.952-.87-2.858-2.148-3.525a31.824,31.824,0,0,0-3.95-4.162c-1.029-1.545-2.568-2.329-3.924-.88-1.543.778-.89,2.762-.305,4.129.235,1.533-.776,2.9.246,4.243A31.384,31.384,0,0,0,15.143,34.2,20.3,20.3,0,0,1,17.9,40.757c.256.821-.52,1.65.525,2.375,1.437.942-.979,2.321-.281,3.817-.021.546-.358.407-.64.412ZM11.5,35.068c1.819-.349.058-2.427-.538-3.4-.53-1.655-2.135.132-2.972.247,1.167.518,2.058,1.7,3.13,2.461.107.292-.153.813.381.7Zm2.665-21.446c1.125-.723.359-2.28-.639-2.441C12.792,11.122,13.917,13.569,14.165,13.621Z" transform="translate(-4.381 -8.86)" fill="#fff"/>
</svg>
