<svg xmlns="http://www.w3.org/2000/svg" width="92" height="60" viewBox="0 0 92 60">
  <defs>
    <style>
      .cls-1, .cls-2 {
        fill: #fff;
      }

      .cls-2 {
        font-size: 30px;
        font-family: Bahnschrift;
        font-weight: 600;
      }
    </style>
  </defs>
  <g id="LogoDancePlanner" transform="translate(-2272 -530)">
    <g id="DanceLogo" transform="translate(2347.571 530)">
      <path id="path3411" class="cls-1" d="M14.145,38.031a1.167,1.167,0,0,0-.214-.007.913.913,0,0,1-.409-.051A.252.252,0,0,1,13.4,37.7c.016-.064.065-.089.169-.085s.127-.014.155-.087a.258.258,0,0,1,.168-.15c.061-.019.1-.05.1-.083a5.375,5.375,0,0,0-.138-.592,1.317,1.317,0,0,1-.07-.531v-.24l-.07-.372a10.4,10.4,0,0,0-.252-1.195c-.009-.018-.019-.018-.073,0-.109.04-.123.026-.246-.233a3.783,3.783,0,0,0-.295-.542c-.055-.086-.12-.193-.146-.238-.069-.121-.461-.879-.653-1.262-.307-.614-.368-.74-.469-.973-.164-.378-.233-.5-.3-.536a4.413,4.413,0,0,0-.587-.146c-.1-.021-.185-.042-.2-.047a1.286,1.286,0,0,1-.229-.155,1.75,1.75,0,0,0-.36-.222,2.643,2.643,0,0,1-.563-.385,2.517,2.517,0,0,0-.642-.465.222.222,0,0,0-.091.054.3.3,0,0,1-.1.062c-.191.038-.328.175-.519.52s-.261.438-.323.438c-.025,0-.105-.077-.327-.315-.067-.071-.166-.175-.22-.23l-.237-.243-.258-.264c-.148-.15-.533-.521-.643-.619-.2-.18-.4-.358-.468-.422l-.53-.488a6.663,6.663,0,0,0-.531-.446A1.337,1.337,0,0,1,3.972,26.1a1.273,1.273,0,0,1,.407-.966c.239-.27.791-.824,1.37-1.376a8.638,8.638,0,0,1,.768-.7,9.009,9.009,0,0,1,.8-.552,6.012,6.012,0,0,0,.594-.416l.028-.027-.014-.154c-.016-.172-.057-.49-.1-.772a7.7,7.7,0,0,1-.023-1.829c.016-.132.049-.44.075-.685.065-.615.109-.947.162-1.223a3.605,3.605,0,0,1,.211-.73c.128-.356.326-.9.392-1.084.026-.069.093-.259.151-.422a3.821,3.821,0,0,1,.272-.647,2.267,2.267,0,0,1,.691-.747.644.644,0,0,0,.134-.118c.009-.018.043-.107.075-.2s.119-.326.194-.525.145-.406.157-.459a.969.969,0,0,0-.09-.589,6.527,6.527,0,0,1-.3-1.344c-.011-.078-.024-.171-.029-.208-.027-.175-.095-1-.11-1.344a1.01,1.01,0,0,1,.194-.746c.114-.145.155-.181.224-.191.051-.008.066,0,.15.054.051.035.17.113.266.174A6.58,6.58,0,0,1,12.1,9.511c.5.539.5.538.773.469.257-.064.352-.049.5.079a.78.78,0,0,1,.217.254.254.254,0,0,0,.034.066.149.149,0,0,0,.078-.02.966.966,0,0,1,.817.072,1.865,1.865,0,0,1,.628.659,1.737,1.737,0,0,1,.169.457c.008.051.029.15.047.22a1.286,1.286,0,0,1-.059.791c-.067.254-.087.337-.107.434a.419.419,0,0,1-.179.257c-.084.063-.095.077-.1.119s-.011.052-.03.061-.031.036-.046.108a.952.952,0,0,1-.275.472c-.061.054-.444.307-.588.389a.874.874,0,0,0-.136.1c-.149.141-.225.114-.471-.172a.85.85,0,0,0-.126-.129.565.565,0,0,0-.181.188.744.744,0,0,0-.094.357l-.013.155.044.159.078.282a2.766,2.766,0,0,0,.18.479.549.549,0,0,0,.108.066,1.815,1.815,0,0,1,.392.322,10.292,10.292,0,0,1,.7.91,4.515,4.515,0,0,1,.309.586,2.375,2.375,0,0,0,.59.82l.211.213c.228.231.5.49.585.562.048.039.2.14.334.226a1.442,1.442,0,0,1,.572.531,5.739,5.739,0,0,1,.447.8,5.7,5.7,0,0,0,.558.994,4.432,4.432,0,0,0,.589.772.532.532,0,0,1,.1.132,2.927,2.927,0,0,0,.272.508.871.871,0,0,0,.268.273,2.353,2.353,0,0,0,.6.249c.032.01.045.022.05.05a.1.1,0,0,1-.061.135c-.054.026-.054.026-.274-.029-.254-.064-.259-.064-.237-.03s.32.319.415.4a1.608,1.608,0,0,0,.283.184.156.156,0,0,1,.081.217c-.044.081-.134.057-.4-.112-.006,0,0,.011.017.033a1.086,1.086,0,0,0,.192.143.578.578,0,0,1,.169.13.1.1,0,0,1-.046.111c-.037.029-.058.034-.152.034A.236.236,0,0,1,19.741,25c-.04-.027-.1-.071-.133-.1a1.553,1.553,0,0,0-.491-.278.725.725,0,0,0,.049.131c.069.157.086.247.059.319s-.048.074-.1.055a.666.666,0,0,1-.274-.37.9.9,0,0,0-.1-.178,1.52,1.52,0,0,1-.258-.469,1.63,1.63,0,0,1-.1-.51c-.011-.207-.01-.2-.168-.415a4.656,4.656,0,0,0-.509-.553,11.922,11.922,0,0,1-1.058-1.187,6.329,6.329,0,0,0-.456-.533c-.057-.059-.172-.192-.254-.3a4.431,4.431,0,0,0-.526-.556l-.081-.072-.133-.12-.175-.157-.162-.144c-.247-.216-.652-.587-.7-.637-.016-.018-.05-.051-.075-.074-.042-.037-.114-.11-.285-.289-.034-.036-.128-.142-.209-.238a2.311,2.311,0,0,0-.442-.448.306.306,0,0,0-.23-.072,2.311,2.311,0,0,0-1.083.314,3.678,3.678,0,0,0-.9.724,1.664,1.664,0,0,0-.224.349.2.2,0,0,1-.055.078l-.041.034.008.159a1.025,1.025,0,0,1-.011.26.722.722,0,0,0,.009.363c.034.1.123.335.243.63a3.677,3.677,0,0,1,.33,1.561,2.3,2.3,0,0,1-.25,1.081.322.322,0,0,0-.055.22,1.98,1.98,0,0,0,.23.779c.188.472.324.845.413,1.128a1.574,1.574,0,0,0,.084.216.488.488,0,0,1,.076.282,1.476,1.476,0,0,0,.039.252.885.885,0,0,0,.116.263.976.976,0,0,1,.083.263c.02.082.025.092.075.121s.058.045.111.178c.032.08.077.216.1.3a.861.861,0,0,0,.146.344c.178.277.458.717.489.77.073.121.2.351.233.418.018.038.092.189.165.334s.15.3.172.354c.176.393.37.875.459,1.143.067.2.136.429.342,1.128.089.3.174.589.189.638.11.36.139.45.19.583a.663.663,0,0,1,.052.18.127.127,0,0,1-.063.06c-.063.035-.069.058-.034.127a.228.228,0,0,1,.023.086c0,.038-.008.047-.092.1s-.092.059-.092.09a1.336,1.336,0,0,0,.058.208,1.643,1.643,0,0,0,.681.913.48.48,0,0,1,.173.611,1.584,1.584,0,0,1-.311.565,1.229,1.229,0,0,0-.254.512,1.676,1.676,0,0,0-.048.76,2.1,2.1,0,0,1,.023.249.584.584,0,0,1-.179.472.946.946,0,0,1-.4.015Zm-4.6-9.678a1.13,1.13,0,0,0,.121-.086,2.085,2.085,0,0,1,.352-.225.393.393,0,0,1,.124-.031c.044,0,.052,0,.052-.029a3.251,3.251,0,0,0-.176-.505,6.379,6.379,0,0,0-.766-1.4,4.711,4.711,0,0,1-.478-.769.5.5,0,0,0-.067-.115c-.028-.028-.032-.028-.072-.006a6.82,6.82,0,0,1-.7.344,7.692,7.692,0,0,1-.959.337c-.14.035-.185.051-.185.067s.02.018.043.022a1.253,1.253,0,0,1,.407.207,3.367,3.367,0,0,1,.5.413l.213.2c.1.09.661.571.846.722.484.394.465.377.484.449a.215.215,0,0,1-.012.141.434.434,0,0,1-.036.1c-.019.015-.01.075.016.107a.412.412,0,0,0,.182.107.3.3,0,0,0,.1-.044Zm2.071-16.7a2.146,2.146,0,0,0,.222-.242c.125-.151.123-.144.138-.489.007-.164.009-.314.005-.334-.007-.038-.059-.085-.464-.42-.3-.246-.344-.271-.5-.271a.318.318,0,0,0-.1.008s.013.073.028.152.042.234.059.344a1.587,1.587,0,0,0,.147.516l.1.193a3.933,3.933,0,0,1,.215.508c.027.086.043.118.061.119a.984.984,0,0,0,.092-.083Z" transform="translate(-3.972 -8.044)"/>
      <path id="path3409" class="cls-1" d="M14.229,38.1a1.2,1.2,0,0,0-.214-.005,1.015,1.015,0,0,1-.4-.045.248.248,0,0,1-.114-.185c-.012-.113.046-.165.171-.151a.13.13,0,0,0,.156-.093.235.235,0,0,1,.161-.147c.1-.032.124-.078.1-.163-.006-.02-.027-.115-.046-.21a2.575,2.575,0,0,0-.076-.287,1.283,1.283,0,0,1-.074-.536v-.245l-.07-.371a9.166,9.166,0,0,0-.258-1.218c-.012-.022-.019-.022-.078,0-.1.039-.125.021-.228-.2a4.367,4.367,0,0,0-.312-.577,6.809,6.809,0,0,1-.389-.7c-.416-.8-.74-1.457-.879-1.774-.169-.389-.23-.5-.305-.534a4.257,4.257,0,0,0-.57-.142.728.728,0,0,1-.437-.2,1.865,1.865,0,0,0-.377-.231,2.351,2.351,0,0,1-.549-.377,3.966,3.966,0,0,0-.591-.448l-.06-.03-.069.059a.288.288,0,0,1-.141.074c-.166.034-.317.19-.494.511-.189.341-.262.442-.322.442-.029,0-.055-.024-.265-.25-.07-.075-.182-.192-.249-.261l-.295-.3c-.4-.415-.634-.639-.981-.95l-.352-.319-.53-.488a6.36,6.36,0,0,0-.532-.446,1.138,1.138,0,0,1-.356-.455,1.809,1.809,0,0,1-.119-.795c.037-.392.142-.566.682-1.128.351-.366,1.274-1.264,1.621-1.578.085-.077.347-.286.459-.366s.744-.489.756-.489.388-.278.42-.31l.028-.027L8.031,22c-.016-.17-.059-.5-.1-.765a7.871,7.871,0,0,1-.023-1.859c.015-.132.049-.44.075-.685.066-.624.11-.957.164-1.231a3.168,3.168,0,0,1,.166-.595c.03-.082.071-.2.092-.26s.067-.188.1-.282.113-.308.173-.475l.155-.43c.025-.069.063-.176.084-.238a2.376,2.376,0,0,1,.943-1.326.343.343,0,0,0,.18-.24c.036-.11.2-.567.289-.789a.993.993,0,0,0,.1-.426.976.976,0,0,0-.082-.374,3.308,3.308,0,0,1-.154-.5,8.758,8.758,0,0,1-.163-.886l-.029-.208c-.032-.23-.1-1.01-.11-1.351a.948.948,0,0,1,.207-.768c.135-.168.184-.194.283-.15a.363.363,0,0,1,.075.041c.007.007.142.1.3.2a6.155,6.155,0,0,1,.6.419,7.913,7.913,0,0,1,.893.858,2.661,2.661,0,0,0,.4.39c.079.05.133.052.3.012a.656.656,0,0,1,.377-.015.921.921,0,0,1,.351.351.246.246,0,0,0,.034.064c.007.005.039,0,.073-.02a.829.829,0,0,1,.394-.057,1.258,1.258,0,0,1,.937.607,1.5,1.5,0,0,1,.284.656,1.65,1.65,0,0,0,.042.187.792.792,0,0,1,.032.275,2.385,2.385,0,0,1-.153.757c-.019.073-.038.158-.042.188a.424.424,0,0,1-.183.262c-.082.062-.1.078-.1.117a.072.072,0,0,1-.029.06c-.019.011-.031.041-.046.114a.924.924,0,0,1-.274.469,6.238,6.238,0,0,1-.57.373.754.754,0,0,0-.138.105c-.155.148-.23.12-.487-.18a1.244,1.244,0,0,0-.111-.12.524.524,0,0,0-.076.057.617.617,0,0,0-.178.282,1.521,1.521,0,0,0-.042.383,6.028,6.028,0,0,0,.261.843c.041.087.044.09.151.146a2.452,2.452,0,0,1,.728.737,4.537,4.537,0,0,1,.671,1.084,2.269,2.269,0,0,0,.579.805l.211.213c.226.229.5.489.585.562.048.039.2.141.334.226a3.344,3.344,0,0,1,.306.21,2.643,2.643,0,0,1,.462.634,4.381,4.381,0,0,1,.262.5,5.826,5.826,0,0,0,.508.921,5.334,5.334,0,0,0,.625.827.483.483,0,0,1,.139.2,2.143,2.143,0,0,0,.367.609,1.781,1.781,0,0,0,.719.359c.1.023.09.159-.018.182a1.062,1.062,0,0,1-.267-.048,1.228,1.228,0,0,0-.233-.047c-.015.02.027.066.284.311a1.782,1.782,0,0,0,.477.343.118.118,0,0,1,.037.061c.028.085-.008.157-.079.157a.952.952,0,0,1-.307-.147.586.586,0,0,0-.125-.07s.007.015.021.025a.652.652,0,0,1,.079.073.945.945,0,0,0,.243.177.577.577,0,0,1,.119.089c.053.075-.035.15-.178.15A.428.428,0,0,1,19.719,25a1.645,1.645,0,0,0-.523-.3.376.376,0,0,0,.038.115.87.87,0,0,1,.083.287.175.175,0,0,1-.027.082c-.026.039-.029.04-.08.022a.654.654,0,0,1-.275-.371.9.9,0,0,0-.1-.171,1.52,1.52,0,0,1-.223-.38,1.62,1.62,0,0,1-.129-.578.554.554,0,0,0-.167-.428,4.7,4.7,0,0,0-.516-.561,12.039,12.039,0,0,1-1.052-1.18,6.374,6.374,0,0,0-.45-.527c-.048-.048-.159-.178-.248-.289a4.619,4.619,0,0,0-.537-.568l-.081-.072-.133-.12-.175-.157-.162-.144c-.218-.191-.608-.547-.674-.615-.029-.03-.073-.073-.1-.1-.042-.038-.116-.112-.285-.29-.034-.036-.128-.142-.209-.238a2.242,2.242,0,0,0-.453-.456.314.314,0,0,0-.229-.079,2.139,2.139,0,0,0-.78.17,3.686,3.686,0,0,0-1.024.678,2.144,2.144,0,0,0-.391.5.681.681,0,0,1-.089.138L10.7,19.4l.007.166a.97.97,0,0,1-.012.26.716.716,0,0,0,.067.5c.047.128.117.307.156.4a5.054,5.054,0,0,1,.317,1.025,3.86,3.86,0,0,1,.019,1,2.454,2.454,0,0,1-.231.721l-.06.119.007.1a1.972,1.972,0,0,0,.233.757c.126.3.314.817.409,1.115a1.848,1.848,0,0,0,.1.247.448.448,0,0,1,.066.248,1.071,1.071,0,0,0,.144.511.671.671,0,0,1,.076.207c.043.176.045.18.105.217.04.025.057.049.093.136.024.059.067.185.094.282a1.146,1.146,0,0,0,.171.409,13.516,13.516,0,0,1,.722,1.187c.018.038.093.192.167.341.175.356.23.475.351.768a14.485,14.485,0,0,1,.614,1.848c.079.27.156.532.171.581.1.343.139.451.2.608.074.2.074.2-.01.257-.03.018-.054.04-.054.049a.485.485,0,0,0,.029.087.214.214,0,0,1,.022.1.3.3,0,0,1-.1.079c-.068.04-.091.061-.091.082a2.45,2.45,0,0,0,.169.487,1.6,1.6,0,0,0,.531.61.49.49,0,0,1,.216.634,1.535,1.535,0,0,1-.312.574,1.289,1.289,0,0,0-.246.483,1.7,1.7,0,0,0-.058.775.886.886,0,0,1-.076.649.259.259,0,0,1-.1.087,1.182,1.182,0,0,1-.377,0ZM9.586,28.479a2.31,2.31,0,0,0,.27-.189c.029-.022.2-.127.241-.148a.433.433,0,0,1,.116-.028l.076-.008,0-.048a6.277,6.277,0,0,0-.279-.747,6.642,6.642,0,0,0-.667-1.164,4.8,4.8,0,0,1-.473-.758c-.042-.1-.075-.141-.1-.141a1.6,1.6,0,0,0-.213.1,7.8,7.8,0,0,1-1.471.586,1.085,1.085,0,0,0-.2.067c-.016.021.008.041.063.053a1.415,1.415,0,0,1,.4.206,3.313,3.313,0,0,1,.483.4l.213.2c.094.087.7.6.863.737.467.379.463.375.473.458a.305.305,0,0,1-.029.154.783.783,0,0,0-.036.117c0,.029.047.078.121.126S9.524,28.507,9.586,28.479ZM11.67,11.8l.07-.071a3.115,3.115,0,0,0,.251-.288c.072-.105.071-.1.085-.436.011-.269.011-.317,0-.344a7.09,7.09,0,0,0-.748-.623.318.318,0,0,0-.2-.059A.308.308,0,0,0,11,9.985a.284.284,0,0,0,.012.124c.013.06.04.214.059.34s.048.274.062.327a1.657,1.657,0,0,0,.162.364,3.274,3.274,0,0,1,.276.664c.01.037.061.033.1-.007Z" transform="translate(-4.063 -8.133)"/>
      <path id="path3407" class="cls-1" d="M14.377,38.171a1.254,1.254,0,0,0-.219,0,.915.915,0,0,1-.392-.046.24.24,0,0,1-.093-.189.288.288,0,0,1,.009-.082.135.135,0,0,1,.138-.042.149.149,0,0,0,.172-.088.25.25,0,0,1,.141-.148c.1-.022.149-.081.128-.153-.005-.018-.026-.112-.045-.208a2.877,2.877,0,0,0-.077-.293,1.255,1.255,0,0,1-.073-.527v-.245l-.07-.371a8.1,8.1,0,0,0-.272-1.261c-.013-.016-.023-.016-.059,0a.127.127,0,0,1-.137,0,1.339,1.339,0,0,1-.108-.2,4.361,4.361,0,0,0-.312-.576,6.8,6.8,0,0,1-.389-.7c-.415-.8-.74-1.456-.878-1.773-.176-.4-.221-.481-.307-.525a3.743,3.743,0,0,0-.591-.15c-.083-.017-.168-.038-.191-.047a.815.815,0,0,1-.211-.141,1.358,1.358,0,0,0-.162-.114,2.387,2.387,0,0,0-.269-.144,2.4,2.4,0,0,1-.486-.342,3.226,3.226,0,0,0-.667-.488.268.268,0,0,0-.079.055.261.261,0,0,1-.125.067c-.175.034-.336.2-.529.552-.136.246-.253.41-.292.41s-.041-.014-.281-.27c-.083-.088-.195-.2-.249-.26l-.243-.248c-.431-.443-.657-.663-1.01-.98L5.8,28.319l-.53-.488a6.356,6.356,0,0,0-.532-.446,1.2,1.2,0,0,1-.369-.474,1.563,1.563,0,0,1-.109-.619,1.055,1.055,0,0,1,.17-.684,7.786,7.786,0,0,1,.931-1.023c.287-.285,1.026-.994,1.205-1.156.085-.076.347-.286.459-.366s.743-.489.756-.489.388-.278.419-.309l.027-.026L8.2,22.062c-.02-.191-.049-.41-.093-.705a6.95,6.95,0,0,1-.063-.818,7.093,7.093,0,0,1,.04-1.1c.016-.132.049-.44.075-.685.063-.6.108-.944.156-1.19a2.651,2.651,0,0,1,.136-.516l.118-.334c.033-.094.084-.234.113-.312s.1-.278.162-.445L9,15.526c.025-.069.063-.176.083-.237a2.414,2.414,0,0,1,.953-1.34c.089-.064.121-.1.135-.133.04-.106.2-.562.2-.568s.042-.115.093-.248.1-.282.115-.331a.883.883,0,0,0-.07-.564,3.081,3.081,0,0,1-.154-.5,8.3,8.3,0,0,1-.153-.838l-.029-.208c-.035-.25-.1-1.042-.11-1.38a1.281,1.281,0,0,1,.053-.532,1.4,1.4,0,0,1,.255-.354.161.161,0,0,1,.2-.011l.332.219a6.139,6.139,0,0,1,.83.613c.118.1.41.394.586.584a3,3,0,0,0,.484.474c.087.056.136.06.287.022a.864.864,0,0,1,.395-.021,1.089,1.089,0,0,1,.277.243.571.571,0,0,1,.073.119c.026.064.028.064.148.015a1.489,1.489,0,0,1,.577,0,1.194,1.194,0,0,1,.527.353,2.419,2.419,0,0,1,.328.454,1.363,1.363,0,0,1,.127.38,1.12,1.12,0,0,0,.037.167.889.889,0,0,1,.037.326,1.091,1.091,0,0,1-.053.4c-.029.114-.072.275-.094.356a1.279,1.279,0,0,0-.041.188.439.439,0,0,1-.185.259c-.091.068-.1.076-.093.128a.043.043,0,0,1-.026.039c-.022.011-.032.035-.049.115a.949.949,0,0,1-.283.48,6.22,6.22,0,0,1-.569.373.738.738,0,0,0-.135.1c-.151.142-.215.118-.467-.176a.578.578,0,0,0-.123-.12.506.506,0,0,0-.185.171.977.977,0,0,0-.121.447.535.535,0,0,0,.033.223,5.148,5.148,0,0,0,.233.732c.038.084.042.088.146.141a2.462,2.462,0,0,1,.732.742,4.571,4.571,0,0,1,.676,1.092,2.283,2.283,0,0,0,.567.79l.211.213c.226.229.5.489.585.562.048.039.2.14.333.225a3.266,3.266,0,0,1,.318.22,2.932,2.932,0,0,1,.484.672,4.6,4.6,0,0,1,.241.465,5.715,5.715,0,0,0,.553.987,4.309,4.309,0,0,0,.564.743.591.591,0,0,1,.159.228,2.157,2.157,0,0,0,.351.585,1.814,1.814,0,0,0,.7.359.177.177,0,0,1,.084.039.089.089,0,0,1-.015.1c-.037.044-.108.039-.349-.023-.211-.055-.251-.054-.214,0a6,6,0,0,0,.435.417,1.442,1.442,0,0,0,.313.2c.021,0,.06.077.06.118,0,.089-.08.114-.2.062a2,2,0,0,1-.193-.112c-.133-.085-.2-.106-.109-.034a.969.969,0,0,1,.087.081.494.494,0,0,0,.169.126c.118.061.2.13.2.17,0,.063-.059.093-.185.093a.365.365,0,0,1-.289-.122,1.46,1.46,0,0,0-.532-.3.358.358,0,0,0,.04.124,1.639,1.639,0,0,1,.063.162.358.358,0,0,1,0,.2c-.023.04-.1.023-.156-.033a1.2,1.2,0,0,1-.195-.32.736.736,0,0,0-.087-.156,1.794,1.794,0,0,1-.32-.652,2.115,2.115,0,0,1-.035-.294.6.6,0,0,0-.165-.446,4.418,4.418,0,0,0-.512-.558c-.3-.3-.614-.638-.773-.836-.39-.486-.606-.744-.757-.9-.067-.07-.181-.2-.254-.3a4.23,4.23,0,0,0-.508-.535l-.081-.072-.133-.12-.175-.157-.162-.144c-.233-.2-.6-.54-.672-.613-.027-.028-.072-.072-.1-.1a5.885,5.885,0,0,1-.476-.507,2.464,2.464,0,0,0-.439-.453.55.55,0,0,0-.544-.087,2.946,2.946,0,0,0-1.3.629,2.07,2.07,0,0,0-.64.725.371.371,0,0,1-.073.107l-.041.036.006.177a1.163,1.163,0,0,1-.014.289.823.823,0,0,0-.015.176,5.011,5.011,0,0,0,.251.7,4.854,4.854,0,0,1,.306.979,4.263,4.263,0,0,1,.02,1.057,2.355,2.355,0,0,1-.176.585c-.108.226-.115.249-.107.332a2.261,2.261,0,0,0,.243.764c.126.3.314.817.409,1.115a1.844,1.844,0,0,0,.1.254.359.359,0,0,1,.052.2c0,.069.015.16.023.2a1.2,1.2,0,0,0,.131.346.522.522,0,0,1,.066.171c.041.18.055.213.1.238.067.034.123.157.2.439a1.161,1.161,0,0,0,.169.4,13.536,13.536,0,0,1,.722,1.187c.018.038.093.192.167.341.175.355.23.475.351.767a14.482,14.482,0,0,1,.613,1.848c.079.27.156.532.171.581.106.348.138.448.19.586a1.159,1.159,0,0,1,.059.187c0,.024-.015.041-.063.07a.228.228,0,0,0-.064.048.606.606,0,0,0,.03.08.275.275,0,0,1,.026.1c0,.017-.038.05-.1.087-.081.052-.092.064-.089.1a2.438,2.438,0,0,0,.166.476,1.633,1.633,0,0,0,.567.643.426.426,0,0,1,.212.427,1.341,1.341,0,0,1-.338.732,1.6,1.6,0,0,0-.316.785,1.229,1.229,0,0,0,0,.462,1.628,1.628,0,0,1,.006.5.463.463,0,0,1-.114.218c-.035.034-.047.036-.2.038a1.818,1.818,0,0,1-.243-.011ZM9.782,28.558a1.224,1.224,0,0,0,.115-.079c.264-.2.381-.264.477-.264a.1.1,0,0,0,.081-.023.1.1,0,0,0,.018-.029c0-.02-.118-.344-.192-.526a6.412,6.412,0,0,0-.772-1.416,4.8,4.8,0,0,1-.473-.758c-.038-.087-.074-.141-.093-.141s-.105.05-.217.111A7.469,7.469,0,0,1,7.3,26c-.227.061-.254.071-.254.1s.028.046.1.064a1.087,1.087,0,0,1,.359.189,3.306,3.306,0,0,1,.479.4l.213.2c.094.087.7.6.863.737a4.923,4.923,0,0,1,.434.366.128.128,0,0,1,.043.114.436.436,0,0,1-.035.154c-.041.1-.036.127.036.185C9.648,28.593,9.694,28.6,9.782,28.558ZM11.834,11.9a.188.188,0,0,1,.041-.037.139.139,0,0,0,.034-.033c.015-.018.051-.057.078-.085a1.456,1.456,0,0,0,.236-.318,2.2,2.2,0,0,0,.029-.341c.011-.263.011-.293-.007-.331s-.06-.077-.45-.4c-.309-.256-.4-.308-.549-.3a.237.237,0,0,0-.087.017.6.6,0,0,0,.017.148c.014.075.039.224.055.33s.043.243.059.3a1.723,1.723,0,0,0,.153.363,3.369,3.369,0,0,1,.293.694c.01.038.058.032.1-.011Z" transform="translate(-4.228 -8.222)"/>
      <path id="path3405" class="cls-1" d="M14.385,38.2a1.25,1.25,0,0,0-.219,0,.827.827,0,0,1-.4-.052.232.232,0,0,1-.094-.189c0-.094.026-.114.148-.115s.154-.023.18-.1a.229.229,0,0,1,.145-.134c.128-.031.138-.061.092-.272a2.808,2.808,0,0,0-.11-.429,1.2,1.2,0,0,1-.063-.5v-.24L14,35.793a7.675,7.675,0,0,0-.271-1.255c-.011-.012-.03-.01-.068.007-.106.046-.125.03-.227-.19a4.351,4.351,0,0,0-.31-.573,6.8,6.8,0,0,1-.389-.7c-.415-.8-.74-1.456-.878-1.773-.169-.388-.233-.5-.311-.543a2.733,2.733,0,0,0-.524-.134c-.111-.024-.225-.052-.254-.061a.819.819,0,0,1-.234-.157,1.925,1.925,0,0,0-.407-.243,2.607,2.607,0,0,1-.509-.356,2.706,2.706,0,0,0-.653-.473.267.267,0,0,0-.094.059.25.25,0,0,1-.1.059.407.407,0,0,0-.219.105,1.474,1.474,0,0,0-.31.42c-.055.1-.124.22-.155.27-.053.087-.13.169-.158.169a1.59,1.59,0,0,1-.205-.2c-.015-.021-.225-.24-.394-.411L7.1,29.581c-.384-.4-.726-.726-1.005-.971-.113-.1-.312-.28-.545-.5-.349-.323-.43-.4-.572-.516-.082-.07-.194-.158-.248-.2a1.059,1.059,0,0,1-.352-.459,1.565,1.565,0,0,1-.115-.619c0-.49.088-.661.673-1.27.321-.335.838-.84,1.448-1.416a6.386,6.386,0,0,1,1.07-.819l.266-.168a4.73,4.73,0,0,0,.479-.347l.032-.033-.014-.14c-.017-.168-.06-.5-.1-.757a6.828,6.828,0,0,1-.063-.81,6.928,6.928,0,0,1,.04-1.079c.016-.132.049-.44.075-.685.066-.621.11-.956.163-1.226a3.317,3.317,0,0,1,.188-.648c.042-.116.077-.214.077-.217s.033-.095.074-.2.125-.338.186-.51l.155-.43c.024-.065.06-.169.081-.23a2.37,2.37,0,0,1,.944-1.341.358.358,0,0,0,.183-.238c.024-.071.173-.479.3-.825a1.006,1.006,0,0,0,.1-.4,1.236,1.236,0,0,0-.109-.453,6.331,6.331,0,0,1-.289-1.3l-.029-.208c-.034-.24-.1-1.027-.11-1.365a.945.945,0,0,1,.178-.732c.158-.209.22-.233.361-.137l.35.231A6.681,6.681,0,0,1,12.52,9.928a2.26,2.26,0,0,0,.185.186.334.334,0,0,0,.406.108.805.805,0,0,1,.382-.021.953.953,0,0,1,.343.34c.035.089.047.1.113.062a1,1,0,0,1,1.009.193,1.749,1.749,0,0,1,.6.983,1.647,1.647,0,0,0,.042.188.82.82,0,0,1,.032.289,1.075,1.075,0,0,1-.053.386c-.029.114-.072.275-.094.356a1.282,1.282,0,0,0-.041.188.393.393,0,0,1-.157.246c-.119.093-.132.107-.132.144a.083.083,0,0,1-.023.055.288.288,0,0,0-.045.117.923.923,0,0,1-.267.46c-.061.053-.505.344-.589.386a.823.823,0,0,0-.127.1c-.086.08-.087.08-.158.075s-.124-.039-.267-.2c-.047-.054-.1-.116-.124-.14l-.039-.042-.062.045a.645.645,0,0,0-.226.417.74.74,0,0,0,.013.408,5.159,5.159,0,0,0,.223.705c.045.1.046.1.169.167a2.5,2.5,0,0,1,.723.736,4.473,4.473,0,0,1,.661,1.071,2.107,2.107,0,0,0,.437.661l.1.111c.011.012.05.052.088.089s.118.117.179.179c.2.206.49.483.577.554.048.039.2.141.334.226a1.559,1.559,0,0,1,.421.328,3.437,3.437,0,0,1,.259.373,5.073,5.073,0,0,1,.338.626,5.776,5.776,0,0,0,.553.987,4.679,4.679,0,0,0,.577.76.614.614,0,0,1,.117.151c.077.163.1.209.158.324a1.51,1.51,0,0,0,.3.4,1.907,1.907,0,0,0,.629.3c.11.029.132.066.078.134-.039.05-.074.048-.338-.018a1.12,1.12,0,0,0-.231-.044c-.02.025.055.114.243.289a1.791,1.791,0,0,0,.5.373.111.111,0,0,1,.061.061c.023.057.022.083-.006.118-.047.06-.136.032-.366-.117-.078-.05-.144-.091-.147-.091s-.006.009-.006.02.019.034.043.051a.639.639,0,0,1,.087.081.689.689,0,0,0,.217.156c.123.074.156.107.146.147s-.079.08-.184.08a.417.417,0,0,1-.3-.137,3.031,3.031,0,0,0-.372-.242c-.124-.058-.149-.065-.155-.044a.431.431,0,0,0,.042.129c.083.187.1.289.059.354-.061.1-.226-.069-.337-.339a1,1,0,0,0-.1-.178,1.488,1.488,0,0,1-.226-.388,1.46,1.46,0,0,1-.123-.555,1.379,1.379,0,0,0-.023-.215,1.961,1.961,0,0,0-.21-.308,4.131,4.131,0,0,0-.357-.384c-.226-.224-.548-.557-.566-.585,0,0-.05-.059-.1-.12-.131-.147-.205-.236-.485-.581a6.384,6.384,0,0,0-.459-.536c-.033-.032-.137-.153-.231-.269a4.641,4.641,0,0,0-.541-.574c-.047-.041-.206-.183-.259-.232s-.159-.143-.364-.325l-.219-.2-.2-.183c-.048-.042-.11-.1-.138-.13s-.083-.084-.123-.12a7.387,7.387,0,0,1-.629-.677,1.232,1.232,0,0,0-.454-.385,1.665,1.665,0,0,0-.851.137,3.609,3.609,0,0,0-1.256.888,1.84,1.84,0,0,0-.234.357.265.265,0,0,1-.056.08l-.047.048.007.168a1.085,1.085,0,0,1-.014.28.734.734,0,0,0,.073.493c.045.122.116.3.158.4a4.925,4.925,0,0,1,.311.994,4.09,4.09,0,0,1,.02,1.027,2.362,2.362,0,0,1-.225.695.333.333,0,0,0-.058.216,1.385,1.385,0,0,0,.117.49l.167.414c.109.269.282.748.363,1a1.788,1.788,0,0,0,.1.249.379.379,0,0,1,.056.216,1.1,1.1,0,0,0,.134.509.612.612,0,0,1,.094.248c.031.142.042.164.1.2s.055.041.1.159c.029.072.072.2.1.287a1.358,1.358,0,0,0,.265.542c.083.123.426.675.5.8.033.057.08.145.1.2l.178.364c.176.357.23.476.352.768a14.641,14.641,0,0,1,.625,1.877c.079.27.157.535.173.588l.07.23c.022.073.072.219.11.324a1.041,1.041,0,0,1,.063.212.159.159,0,0,1-.065.053c-.034.018-.058.04-.058.054a.34.34,0,0,0,.03.087.2.2,0,0,1,.023.091.284.284,0,0,1-.1.081l-.094.055.007.049a1.99,1.99,0,0,0,.056.2,1.646,1.646,0,0,0,.651.9c.2.15.259.262.242.441a1.386,1.386,0,0,1-.339.737,1.52,1.52,0,0,0-.314.771,1.383,1.383,0,0,0,0,.493,1.3,1.3,0,0,1-.011.531.374.374,0,0,1-.137.195,1.145,1.145,0,0,1-.4,0Zm-4.63-9.593a1.877,1.877,0,0,0,.27-.185.775.775,0,0,1,.365-.177c.078,0,.1-.024.075-.1-.008-.03-.058-.168-.111-.307a6.447,6.447,0,0,0-.832-1.572,4.79,4.79,0,0,1-.472-.758c-.041-.093-.086-.156-.111-.156a1.9,1.9,0,0,0-.222.111,7.412,7.412,0,0,1-1.457.581c-.2.055-.249.08-.209.118a.182.182,0,0,0,.075.031,1.157,1.157,0,0,1,.385.2,3.333,3.333,0,0,1,.49.4l.213.2c.094.087.7.6.863.736l.258.209c.173.14.208.183.208.253a.493.493,0,0,1-.035.142.6.6,0,0,0-.035.108c0,.03.057.093.121.134.1.063.094.061.163.031Zm2.085-16.676c.1-.1.137-.138.193-.2a1.172,1.172,0,0,0,.156-.2c.051-.081.058-.13.071-.5a.772.772,0,0,0-.008-.25,3.328,3.328,0,0,0-.466-.412,1.339,1.339,0,0,0-.374-.262.379.379,0,0,0-.247-.005c-.018.017-.018.025,0,.093.01.041.036.191.059.334a1.723,1.723,0,0,0,.229.735c.02.033.05.087.067.122.042.084.172.409.2.505.021.066.029.078.055.078A.114.114,0,0,0,11.839,11.933Z" transform="translate(-4.23 -8.252)"/>
      <path id="path3403" class="cls-1" d="M14.4,38.24a1.125,1.125,0,0,0-.209-.006.884.884,0,0,1-.409-.051.259.259,0,0,1-.1-.189c0-.056.034-.107.072-.109l.111,0c.081,0,.086,0,.115-.052.1-.154.109-.165.236-.2a.1.1,0,0,0,.051-.047c.017-.034.018-.047,0-.107-.008-.038-.03-.142-.049-.232a2.822,2.822,0,0,0-.075-.282,1.255,1.255,0,0,1-.073-.527v-.245L14,35.816a7.476,7.476,0,0,0-.263-1.226l-.021-.034-.065.026c-.1.039-.11.027-.233-.232a5.659,5.659,0,0,0-.359-.642c-.175-.274-.991-1.882-1.219-2.4-.151-.345-.221-.464-.3-.5a3.329,3.329,0,0,0-.512-.127c-.111-.024-.225-.051-.254-.061a.9.9,0,0,1-.255-.17,2.1,2.1,0,0,0-.386-.23,2.806,2.806,0,0,1-.525-.366,4.973,4.973,0,0,0-.508-.4c-.141-.091-.144-.092-.224-.021a.4.4,0,0,1-.092.066.429.429,0,0,0-.242.113,1.324,1.324,0,0,0-.277.363c-.193.353-.283.482-.338.482-.02,0-.079-.057-.287-.277-.075-.079-.247-.258-.335-.347l-.231-.238c-.364-.376-.622-.623-1.108-1.06-.248-.224-.325-.294-.618-.564a7.165,7.165,0,0,0-.635-.542,1.139,1.139,0,0,1-.424-.74,1.42,1.42,0,0,1-.03-.32c0-.464.1-.668.622-1.211.364-.38,1.354-1.345,1.691-1.647a8.015,8.015,0,0,1,1.062-.759c.162-.1.361-.238.442-.3.123-.095.147-.119.147-.149,0-.088-.05-.5-.11-.9a7.888,7.888,0,0,1-.023-1.858c.015-.132.049-.44.075-.685a9.392,9.392,0,0,1,.241-1.56c.045-.14.335-.948.523-1.46.026-.069.093-.259.151-.422a3.559,3.559,0,0,1,.276-.65,2.193,2.193,0,0,1,.678-.725l.13-.095.041-.112c.023-.062.058-.159.079-.216s.094-.257.165-.445a1.5,1.5,0,0,0,.167-.606,1.3,1.3,0,0,0-.111-.456,6.387,6.387,0,0,1-.29-1.3l-.029-.208c-.032-.23-.1-1.009-.11-1.35a.96.96,0,0,1,.2-.75c.151-.192.2-.208.35-.109.05.034.176.117.282.185a6.544,6.544,0,0,1,1.476,1.252,3.772,3.772,0,0,0,.437.43c.07.047.146.049.31.008a.532.532,0,0,1,.409.008,1.115,1.115,0,0,1,.283.29.485.485,0,0,0,.051.089c.022.026.025.025.085,0a.943.943,0,0,1,.74.029,1.729,1.729,0,0,1,.849,1.1c.007.041.029.141.049.222a1.134,1.134,0,0,1,.033.436c-.007.048-.045.207-.084.353s-.078.3-.088.354a.45.45,0,0,1-.186.336c-.087.063-.117.1-.117.143,0,.023-.008.039-.023.044s-.028.032-.04.091a.949.949,0,0,1-.251.466,6.222,6.222,0,0,1-.6.4.96.96,0,0,0-.149.113.391.391,0,0,1-.09.07c-.086.028-.191-.045-.375-.262a.809.809,0,0,0-.113-.119.453.453,0,0,0-.163.144.8.8,0,0,0-.143.479c-.008.12-.011.107.113.55a2.216,2.216,0,0,0,.189.49.48.48,0,0,0,.119.081,3.055,3.055,0,0,1,.839.88,5.3,5.3,0,0,1,.461.739l.084.191a2.858,2.858,0,0,0,.758.987,4.249,4.249,0,0,0,.972.838,2.751,2.751,0,0,1,.33.234,4.3,4.3,0,0,1,.65,1.03,5.977,5.977,0,0,0,.652,1.14,4.862,4.862,0,0,0,.52.676A.464.464,0,0,1,18.99,23c.286.608.406.751.761.912a1.878,1.878,0,0,0,.328.12c.1.025.1.027.1.081a.066.066,0,0,1-.034.066c-.048.032-.075.029-.3-.029-.2-.052-.266-.062-.266-.04a2.509,2.509,0,0,0,.448.461,2.094,2.094,0,0,0,.317.207.139.139,0,0,1,.05.063c.018.045.018.049,0,.086-.044.076-.116.056-.352-.1a1.1,1.1,0,0,0-.165-.095c-.032,0-.018.028.037.076.03.026.072.066.092.089a1.366,1.366,0,0,0,.192.137.714.714,0,0,1,.162.122c.018.062-.061.111-.18.111a.246.246,0,0,1-.165-.05,1.581,1.581,0,0,1-.144-.1,2.673,2.673,0,0,0-.349-.227,1.258,1.258,0,0,0-.162-.066c-.021,0,0,.065.043.174.082.188.1.308.04.346-.073.05-.215-.108-.318-.356a1.482,1.482,0,0,0-.134-.22,1.738,1.738,0,0,1-.291-.646,2.261,2.261,0,0,1-.029-.272l-.01-.186-.048-.082a4,4,0,0,0-.635-.732,13.6,13.6,0,0,1-1.08-1.21c-.171-.21-.361-.433-.422-.495s-.185-.206-.277-.321a7.354,7.354,0,0,0-1-.98l-.307-.275-.26-.235c-.048-.044-.111-.1-.14-.134s-.081-.081-.115-.112c-.057-.052-.162-.158-.345-.351-.036-.038-.139-.155-.228-.262-.312-.37-.425-.448-.643-.449a2.393,2.393,0,0,0-.516.09,3.243,3.243,0,0,0-1.236.737,2.474,2.474,0,0,0-.427.542.352.352,0,0,1-.077.115l-.04.032.008.173a1,1,0,0,1-.011.267c-.046.232-.034.279.252.985a4.951,4.951,0,0,1,.284.91,4.121,4.121,0,0,1,.023,1.031,2.449,2.449,0,0,1-.23.7.313.313,0,0,0-.052.215,1.977,1.977,0,0,0,.229.779c.186.468.321.838.413,1.128a1.961,1.961,0,0,0,.1.249.421.421,0,0,1,.06.23,1.022,1.022,0,0,0,.126.486.74.74,0,0,1,.1.276c.025.117.043.148.105.188a.791.791,0,0,1,.161.352l.064.215a.934.934,0,0,0,.1.211l.312.494a8.7,8.7,0,0,1,.449.766c.017.035.084.171.149.3s.136.277.158.326c.176.391.37.875.459,1.143.067.2.136.429.342,1.128.089.3.174.589.189.638.112.369.142.461.192.589a.651.651,0,0,1,.05.167.127.127,0,0,1-.057.047c-.079.039-.082.052-.039.148s.044.1-.073.17l-.083.052,0,.059a2.079,2.079,0,0,0,.171.5,1.783,1.783,0,0,0,.544.61.433.433,0,0,1,.225.453,1.475,1.475,0,0,1-.347.725,1.212,1.212,0,0,0-.243.48,1.718,1.718,0,0,0-.056.784,1.518,1.518,0,0,1,.02.3.535.535,0,0,1-.044.237.364.364,0,0,1-.09.146c-.049.044-.053.045-.2.047a1.571,1.571,0,0,1-.227-.012ZM9.823,28.617a1.136,1.136,0,0,0,.106-.079c.025-.022.117-.085.2-.14a.5.5,0,0,1,.241-.11c.139-.016.138-.028-.036-.471a6,6,0,0,0-.318-.711,6.077,6.077,0,0,0-.343-.58c-.027-.042-.126-.188-.222-.325a4.645,4.645,0,0,1-.388-.632.89.89,0,0,0-.084-.146l-.039-.049-.079.044a7.561,7.561,0,0,1-1.694.687.3.3,0,0,0-.131.053c-.01.034.019.062.075.073a1.2,1.2,0,0,1,.4.209,2.925,2.925,0,0,1,.475.39l.2.19c.082.076.721.622.882.753.526.43.5.4.435.591a.664.664,0,0,0-.035.116c0,.034.07.111.139.153s.121.042.212-.017ZM11.818,12a.2.2,0,0,1,.047-.045.364.364,0,0,0,.061-.055l.09-.1a1.512,1.512,0,0,0,.212-.283,1.878,1.878,0,0,0,.03-.354c.012-.285.011-.315-.007-.35a3.337,3.337,0,0,0-.492-.433,1.114,1.114,0,0,0-.334-.233.515.515,0,0,0-.265-.011c-.013.011-.011.038.014.159.016.081.043.237.06.347a1.551,1.551,0,0,0,.222.675,3.617,3.617,0,0,1,.248.574c.026.085.041.116.06.12l.032.008S11.81,12.011,11.818,12Z" transform="translate(-4.232 -8.291)"/>
      <path id="path3401" class="cls-1" d="M14.443,38.212a1.373,1.373,0,0,0-.225,0,.8.8,0,0,1-.377-.047.215.215,0,0,1-.09-.18c0-.086.02-.1.132-.1s.153-.022.188-.1a.23.23,0,0,1,.16-.141.144.144,0,0,0,.111-.1,3.739,3.739,0,0,0-.15-.645l-.041-.119-.007-.312-.007-.312-.066-.341-.124-.636a2.88,2.88,0,0,0-.149-.6c-.02-.026-.025-.027-.07-.006s-.1.028-.128,0a1.632,1.632,0,0,1-.1-.189,4.262,4.262,0,0,0-.305-.564c-.055-.086-.12-.193-.146-.237-.069-.121-.461-.878-.652-1.261-.314-.628-.362-.728-.492-1.024a2.373,2.373,0,0,0-.208-.416c-.069-.1-.077-.1-.652-.23a.758.758,0,0,1-.442-.2,1.748,1.748,0,0,0-.36-.222,2.641,2.641,0,0,1-.562-.385,4.919,4.919,0,0,0-.5-.4c-.144-.094-.157-.1-.242-.022a.272.272,0,0,1-.1.061.494.494,0,0,0-.245.125,1.764,1.764,0,0,0-.325.461,1.179,1.179,0,0,1-.256.372c-.03.012-.054-.009-.263-.233-.086-.093-.21-.222-.274-.287l-.289-.3c-.4-.415-.634-.638-.981-.95l-.352-.319-.529-.488a6.693,6.693,0,0,0-.53-.446,1.356,1.356,0,0,1-.454-1.245,1.226,1.226,0,0,1,.382-.775C5,25.08,5.743,24.339,6.47,23.658A6.859,6.859,0,0,1,7.66,22.77a4.975,4.975,0,0,0,.607-.431L8.3,22.3l-.019-.178c-.02-.192-.049-.41-.093-.706a6.95,6.95,0,0,1-.063-.817,7.093,7.093,0,0,1,.04-1.1c.016-.132.049-.44.075-.685.063-.6.108-.943.156-1.191a3.545,3.545,0,0,1,.205-.7c.128-.356.326-.9.392-1.083.026-.069.093-.259.151-.422a3.769,3.769,0,0,1,.273-.647,2.2,2.2,0,0,1,.679-.732.658.658,0,0,0,.14-.125c.012-.022.048-.114.08-.2s.118-.324.192-.521.144-.4.157-.453a1.008,1.008,0,0,0-.1-.651,6.062,6.062,0,0,1-.279-1.261c-.011-.078-.024-.171-.029-.208-.013-.085-.063-.616-.088-.942-.011-.139-.02-.38-.021-.535V8.855l.049-.127a.75.75,0,0,1,.153-.254c.1-.121.148-.158.21-.158a.453.453,0,0,1,.11.061c.05.034.168.111.263.172a6.736,6.736,0,0,1,1.555,1.324c.409.438.435.453.675.392a1.129,1.129,0,0,1,.251-.036.246.246,0,0,1,.185.044,1.031,1.031,0,0,1,.268.268c.062.125.065.128.121.106a.873.873,0,0,1,.4-.057.842.842,0,0,1,.458.129,1.848,1.848,0,0,1,.591.631,1.645,1.645,0,0,1,.163.441,1.648,1.648,0,0,0,.042.19.853.853,0,0,1,.032.3,2.092,2.092,0,0,1-.142.734,1.729,1.729,0,0,0-.047.2.376.376,0,0,1-.164.24c-.093.07-.127.111-.117.144,0,.01-.007.029-.022.041a.222.222,0,0,0-.048.119,1.117,1.117,0,0,1-.161.35.856.856,0,0,1-.1.107c-.061.054-.444.307-.589.389a.779.779,0,0,0-.129.1c-.144.14-.215.112-.468-.183a.447.447,0,0,0-.12-.113c-.04,0-.134.089-.193.182a.867.867,0,0,0-.116.4l-.013.126.046.169a5.374,5.374,0,0,0,.18.6,1.1,1.1,0,0,0,.089.2.5.5,0,0,0,.114.074,1.808,1.808,0,0,1,.391.322,10.272,10.272,0,0,1,.689.9,4.5,4.5,0,0,1,.306.581,2.407,2.407,0,0,0,.6.834l.21.212c.227.231.5.489.585.561.048.039.2.14.333.226a1.4,1.4,0,0,1,.554.509c.088.131.277.445.327.544.017.033.073.149.126.26a5.7,5.7,0,0,0,.553.987,4.817,4.817,0,0,0,.6.791.456.456,0,0,1,.1.133c.034.076.083.177.161.33a1.918,1.918,0,0,0,.259.359,1.442,1.442,0,0,0,.364.216,1.674,1.674,0,0,0,.346.122c.053,0,.07.071.026.11s-.112.028-.332-.029-.229-.06-.239-.029.035.088.132.182l.15.145a1.7,1.7,0,0,0,.446.334.121.121,0,0,1,.078.156c-.011.031-.021.036-.064.036-.067,0-.122-.026-.3-.141a1.446,1.446,0,0,0-.159-.1c-.028,0-.009.055.031.088.024.02.066.06.095.089a1.566,1.566,0,0,0,.2.149c.166.106.185.135.123.182a.222.222,0,0,1-.139.026c-.114,0-.16-.021-.3-.139a1.453,1.453,0,0,0-.522-.286c-.025.012-.018.038.049.191.11.25.067.4-.08.28a.892.892,0,0,1-.2-.313,1.2,1.2,0,0,0-.122-.208,1.388,1.388,0,0,1-.239-.438,1.326,1.326,0,0,1-.088-.46,1.057,1.057,0,0,0-.03-.238,2.724,2.724,0,0,0-.346-.467c-.051-.054-.2-.205-.329-.335a11.971,11.971,0,0,1-1.051-1.18,6.386,6.386,0,0,0-.45-.527c-.048-.048-.159-.178-.248-.289a4.618,4.618,0,0,0-.537-.568l-.081-.072-.133-.12-.175-.157-.162-.144c-.214-.187-.607-.546-.668-.61-.025-.027-.07-.071-.1-.1a5.79,5.79,0,0,1-.48-.51,2.589,2.589,0,0,0-.425-.443c-.17-.122-.276-.137-.571-.077a3.107,3.107,0,0,0-1.507.814,2.433,2.433,0,0,0-.4.5.74.74,0,0,1-.083.133l-.054.067.006.178a1.09,1.09,0,0,1-.013.272c-.04.2-.026.257.263.97a4.375,4.375,0,0,1,.283.932,4.3,4.3,0,0,1,.014,1.016,2.3,2.3,0,0,1-.216.663.443.443,0,0,0-.051.368,2.638,2.638,0,0,0,.219.645c.192.483.327.852.419,1.143a1.807,1.807,0,0,0,.1.243.291.291,0,0,1,.05.178,1.238,1.238,0,0,0,.135.537.706.706,0,0,1,.1.267c.025.123.043.158.1.186.04.021.052.039.1.167.031.079.076.213.1.3a.86.86,0,0,0,.146.344,13.472,13.472,0,0,1,.721,1.187c.018.038.092.188.164.334s.15.3.171.353c.176.392.37.875.459,1.143.067.2.136.429.342,1.128.089.3.174.589.189.638.112.368.142.46.186.574a.981.981,0,0,1,.051.153c0,.014-.025.038-.063.059-.073.041-.077.06-.035.148s.04.1-.058.156a.313.313,0,0,0-.1.074c-.014.034,0,.1.068.293a1.633,1.633,0,0,0,.643.866c.2.149.247.243.231.428a1.356,1.356,0,0,1-.34.735,1.8,1.8,0,0,0-.168.26,2.482,2.482,0,0,0-.168.744,2.154,2.154,0,0,0,.024.243,1.939,1.939,0,0,1,.016.462.458.458,0,0,1-.145.266,1.2,1.2,0,0,1-.413,0ZM9.9,28.6a1.124,1.124,0,0,0,.1-.078c.025-.022.113-.082.194-.134a.478.478,0,0,1,.214-.1c.153-.013.159-.028.094-.223-.026-.079-.087-.241-.135-.36A6.362,6.362,0,0,0,9.6,26.293a4.785,4.785,0,0,1-.472-.758c-.038-.087-.1-.171-.119-.171a.435.435,0,0,0-.093.043,7.134,7.134,0,0,1-1.578.648,1.241,1.241,0,0,0-.222.075c-.042.035-.016.074.064.1a1.162,1.162,0,0,1,.387.2,3.338,3.338,0,0,1,.5.41c.244.23.283.265.6.537.292.249.377.32.731.608a1.835,1.835,0,0,1,.165.146c.043.052.042.118,0,.243-.035.1-.036.1-.014.136a.314.314,0,0,0,.146.127c.076.04.106.035.209-.032Zm2-16.63c.015-.02.032-.037.038-.037A2.012,2.012,0,0,0,12.3,11.5a2.646,2.646,0,0,0,.031-.689c-.018-.046-.08-.1-.474-.429a1.153,1.153,0,0,0-.373-.256.335.335,0,0,0-.163-.027c-.106.008-.119.022-.1.113.009.038.035.187.057.33a1.792,1.792,0,0,0,.212.72,3.564,3.564,0,0,1,.273.616.934.934,0,0,0,.041.115C11.821,12.023,11.874,12.013,11.9,11.973Z" transform="translate(-4.296 -8.281)"/>
      <path id="path3399" class="cls-1" d="M14.572,38.783c-.931.1-.694-.323-.15-.722a5.826,5.826,0,0,1-.242-1.535c-.046-1.216-.686-1.636-1.16-2.588-.6-.819-.786-2.306-1.64-2.671-.932.027-1.65-1.367-2.494-1.214-.523.194-.746,1.525-1.269.49C6.67,29.493,5.575,28.666,4.6,27.673c-.637-1.264.6-2.069,1.235-2.732a15.757,15.757,0,0,1,2.548-2.05,13.71,13.71,0,0,1,.169-4.965c.48-1.133.66-2.659,1.634-3.294,1-1.05.225-2.473.125-3.785-.246-.683-.1-2.474.75-1.658.838.317,1.354,1.54,2.189,1.682.592.1,1,.471,1.651.442.995.477,1.064,2.239.309,3.011a1.258,1.258,0,0,1-1.739.818c-.572,1.4.939,1.924,1.4,2.913a5.638,5.638,0,0,0,2.243,2.506c.788.96,1.261,2.294,2.083,3.224.094.692,1.778,1.076.538.872.082.361,1.394,1.2.234.641.272.273.755.723.041.4-.462-.413-.573-.324-.492.2-.76-.739-.675-2.219-1.667-2.737a24.7,24.7,0,0,0-3.064-3.232c-.8-1.2-1.992-1.809-3.044-.684-1.2.6-.69,2.145-.237,3.206.182,1.191-.6,2.251.191,3.295a24.384,24.384,0,0,0,1.036,2.815,15.773,15.773,0,0,1,2.14,5.093c.2.637-.4,1.281.407,1.844,1.114.732-.759,1.8-.218,2.964-.016.424-.278.316-.5.32ZM9.913,29.237c1.411-.271.045-1.884-.417-2.642-.411-1.285-1.656.1-2.305.192A16.438,16.438,0,0,1,9.618,28.7c.083.227-.119.631.3.54Zm2.068-16.653c.873-.561.278-1.771-.5-1.9C10.916,10.644,11.789,12.543,11.981,12.584Z" transform="translate(-4.381 -8.86)"/>
    </g>
    <text id="Dance" class="cls-2" transform="translate(2309 554)"><tspan x="-36.05" y="0">Dance</tspan></text>
    <text id="Planner" class="cls-2" transform="translate(2318 584)"><tspan x="-45.967" y="0">Planner</tspan></text>
  </g>
</svg>
